<?xml version="1.0" encoding="utf-8"?>
<!-- Generator: Adobe Illustrator 19.1.0, SVG Export Plug-In . SVG Version: 6.00 Build 0)  -->
<!DOCTYPE svg PUBLIC "-//W3C//DTD SVG 1.1//EN" "http://www.w3.org/Graphics/SVG/1.1/DTD/svg11.dtd">
<svg version="1.1" id="clock" xmlns="http://www.w3.org/2000/svg" xmlns:xlink="http://www.w3.org/1999/xlink" x="0px" y="0px"
	 width="32px" height="32px" viewBox="0 0 32 32" style="enable-background:new 0 0 32 32;" xml:space="preserve">
<style type="text/css">
	.st0{fill:#ACB3BC;}
</style>
<g>
	<path class="st0" d="M16,0C7.2,0,0,7.2,0,16s7.2,16,16,16s16-7.2,16-16S24.8,0,16,0z M16,30C8.3,30,2,23.7,2,16C2,8.3,8.3,2,16,2
		s14,6.3,14,14C30,23.7,23.7,30,16,30z"/>
	<path class="st0" d="M18.5,16c0-1-0.6-1.9-1.5-2.3V6h-2v7.7c-0.9,0.4-1.5,1.3-1.5,2.3c0,1.4,1.1,2.5,2.5,2.5c0.3,0,0.6-0.1,0.9-0.2
		l4.1,4.1l1.4-1.4l-4.1-4.1C18.4,16.6,18.5,16.3,18.5,16z"/>
</g>
</svg>
