<?xml version="1.0" encoding="utf-8"?>
<!-- Generator: Adobe Illustrator 19.1.0, SVG Export Plug-In . SVG Version: 6.00 Build 0)  -->
<!DOCTYPE svg PUBLIC "-//W3C//DTD SVG 1.1//EN" "http://www.w3.org/Graphics/SVG/1.1/DTD/svg11.dtd">
<svg version="1.1" id="address-book-active" xmlns="http://www.w3.org/2000/svg" xmlns:xlink="http://www.w3.org/1999/xlink"
	 x="0px" y="0px" width="32px" height="32px" viewBox="0 0 32 32" style="enable-background:new 0 0 32 32;" xml:space="preserve">
<style type="text/css">
	.st0{fill:#005FA0;}
</style>
<path id="XMLID_6_" class="st0" d="M27,1h-2H15H4H2v6H0v2h2v6H0v2h2v6H0v2h2v6h25c2.8,0,5-2.2,5-5V6C32,3.2,29.8,1,27,1z M23,3v10.9
	l-6,3.6V3H23z M30,26c0,1.7-1.3,3-3,3H4v-4h2v-2H4v-6h2v-2H4V9h2V7H4V3h11v18l10-6V3h2c1.7,0,3,1.3,3,3V26z"/>
</svg>
