<?xml version="1.0" encoding="utf-8"?>
<!-- Generator: Adobe Illustrator 19.1.0, SVG Export Plug-In . SVG Version: 6.00 Build 0)  -->
<!DOCTYPE svg PUBLIC "-//W3C//DTD SVG 1.0//EN" "http://www.w3.org/TR/2001/REC-SVG-20010904/DTD/svg10.dtd">
<svg version="1.0" id="Layer_1" xmlns="http://www.w3.org/2000/svg" xmlns:xlink="http://www.w3.org/1999/xlink" x="0px" y="0px"
	 width="16px" height="16px" viewBox="0 0 16 16" style="enable-background:new 0 0 16 16;" xml:space="preserve">
<style type="text/css">
	.st0{fill:#141414;}
</style>
<path class="st0" d="M16,15.2l-4.6-4.5c2.2-2.6,2.1-6.4-0.3-8.9C9.8,0.6,8.2,0,6.5,0S3.2,0.6,1.9,1.9c-2.5,2.5-2.5,6.7,0,9.2
	C3.2,12.4,4.8,13,6.5,13c1.5,0,3-0.5,4.2-1.5l4.6,4.5L16,15.2z M2.7,10.3c-1-1-1.6-2.4-1.6-3.8s0.6-2.8,1.6-3.8s2.4-1.6,3.8-1.6
	s2.8,0.6,3.8,1.6s1.6,2.4,1.6,3.8s-0.6,2.8-1.6,3.8s-2.4,1.6-3.8,1.6S3.7,11.4,2.7,10.3z"/>
<g>
</g>
<g>
</g>
<g>
</g>
<g>
</g>
<g>
</g>
<g>
</g>
<g>
</g>
<g>
</g>
<g>
</g>
<g>
</g>
<g>
</g>
<g>
</g>
<g>
</g>
<g>
</g>
<g>
</g>
</svg>
