<?xml version="1.0" encoding="utf-8"?>
<!-- Generator: Adobe Illustrator 19.0.1, SVG Export Plug-In . SVG Version: 6.00 Build 0)  -->
<svg version="1.1" id="Layer_1" xmlns="http://www.w3.org/2000/svg" xmlns:xlink="http://www.w3.org/1999/xlink" x="0px" y="0px"
	 viewBox="0 0 13 13" enable-background="new 0 0 13 13" xml:space="preserve">
<g>
	<g>
		<path fill="#005FA0" d="M3.3,9C2.8,8.5,2.5,7.7,2.4,7H0.1c0.1,1.4,0.7,2.7,1.5,3.7L3.3,9z"/>
		<path fill="#005FA0" d="M2.4,6c0.1-0.8,0.4-1.5,0.9-2.1L1.6,2.2C0.7,3.3,0.2,4.6,0.1,6H2.4z"/>
		<path fill="#005FA0" d="M7,0v2.3c0.8,0.1,1.5,0.4,2.1,0.9l1.7-1.7C9.7,0.7,8.4,0.1,7,0z"/>
		<path fill="#005FA0" d="M4,3.2c0.6-0.4,1.3-0.7,2-0.8V0C4.6,0.1,3.3,0.7,2.3,1.5L4,3.2z"/>
		<path fill="#005FA0" d="M9.1,9.7c-0.6,0.5-1.3,0.8-2.1,0.9v2.3c1.4-0.1,2.7-0.7,3.8-1.6L9.1,9.7z"/>
		<path fill="#005FA0" d="M9.8,3.9c0.5,0.6,0.8,1.3,0.9,2.1H13c-0.1-1.4-0.7-2.7-1.5-3.7L9.8,3.9z"/>
		<path fill="#005FA0" d="M6,10.6c-0.7-0.1-1.5-0.4-2-0.9l-1.7,1.7c1,0.9,2.3,1.4,3.7,1.5V10.6z"/>
		<path fill="#005FA0" d="M10.7,7c-0.1,0.8-0.4,1.4-0.8,2l1.7,1.7c0.9-1,1.4-2.3,1.5-3.7H10.7z"/>
	</g>
</g>
</svg>
