<?xml version="1.0" encoding="utf-8"?>
<!-- Generator: Adobe Illustrator 19.1.0, SVG Export Plug-In . SVG Version: 6.00 Build 0)  -->
<!DOCTYPE svg PUBLIC "-//W3C//DTD SVG 1.1//EN" "http://www.w3.org/Graphics/SVG/1.1/DTD/svg11.dtd">
<svg version="1.1" id="Layer_1" xmlns="http://www.w3.org/2000/svg" xmlns:xlink="http://www.w3.org/1999/xlink" x="0px" y="0px"
	 width="32px" height="32px" viewBox="-463 265 32 32" style="enable-background:new -463 265 32 32;" xml:space="preserve">
<style type="text/css">
	.st0{fill:#2080C3;}
</style>
<path id="Working_2_" class="st0" d="M-441,281c0,3.3-2.7,6-6,6s-6-2.7-6-6s2.7-6,6-6S-441,277.7-441,281z M-447,272.5
	c-8.3,0-15,8.5-15,8.5s6.7,8.5,15,8.5s15-8.5,15-8.5S-438.7,272.5-447,272.5z M-447,277.5c1.9,0,3.5,1.6,3.5,3.5s-1.6,3.5-3.5,3.5
	s-3.5-1.6-3.5-3.5S-448.9,277.5-447,277.5z"/>
</svg>
