<?xml version="1.0" encoding="utf-8"?>
<!-- Generator: Adobe Illustrator 19.1.0, SVG Export Plug-In . SVG Version: 6.00 Build 0)  -->
<!DOCTYPE svg PUBLIC "-//W3C//DTD SVG 1.1//EN" "http://www.w3.org/Graphics/SVG/1.1/DTD/svg11.dtd">
<svg version="1.1" id="Layer_1_copy_3" xmlns="http://www.w3.org/2000/svg" xmlns:xlink="http://www.w3.org/1999/xlink" x="0px"
	 y="0px" width="32px" height="32px" viewBox="0 0 32 32" style="enable-background:new 0 0 32 32;" xml:space="preserve">
<style type="text/css">
	.st0{fill:#2080C3;}
</style>
<g id="XMLID_1648_">
	<path id="XMLID_1650_" class="st0" d="M24,14H9.2l-1.1-2.1C7,9.7,7.7,7.6,9.9,6.5l5.3-2.7c2.2-1.1,4.3-0.5,5.4,1.7l1,2l2.7-1.4
		l-1-2c-1.9-3.7-5.8-4.9-9.4-3L8.5,3.8c-3.7,1.9-4.9,5.6-3,9.3L6,14h0c-2.4,1-4,3.4-4,6v6c0,3.3,2.7,6,6,6h16c3.3,0,6-2.7,6-6v-6
		C30,16.7,27.3,14,24,14z M27,26c0,1.7-1.3,3-3,3H8c-1.7,0-3-1.3-3-3v-6c0-1.7,1.3-3,3-3h16c1.7,0,3,1.3,3,3V26z"/>
	<circle id="XMLID_1649_" class="st0" cx="16" cy="23" r="3.4"/>
</g>
</svg>
