<?xml version="1.0" encoding="utf-8"?>
<!-- Generator: Adobe Illustrator 19.1.0, SVG Export Plug-In . SVG Version: 6.00 Build 0)  -->
<!DOCTYPE svg PUBLIC "-//W3C//DTD SVG 1.0//EN" "http://www.w3.org/TR/2001/REC-SVG-20010904/DTD/svg10.dtd">
<svg version="1.0" id="Layer_1" xmlns="http://www.w3.org/2000/svg" xmlns:xlink="http://www.w3.org/1999/xlink" x="0px" y="0px"
	 width="32px" height="32px" viewBox="0 0 32 32" style="enable-background:new 0 0 32 32;" xml:space="preserve">
<style type="text/css">
	.st0{fill:#5DA5D9;}
</style>
<path id="XMLID_409_" class="st0" d="M32,28c0,0.6-0.4,1-1,1H1c-0.6,0-1-0.4-1-1V4l0,0l0,0c0-0.2,0.1-0.4,0.2-0.6c0,0,0,0,0-0.1h0.1
	C0.5,3.1,0.7,3,0.9,3C1,3,1,3,1,3h30h0.1c0.2,0,0.4,0.1,0.5,0.2h0.1c0,0,0,0,0,0.1c0.1,0.2,0.2,0.4,0.2,0.6l0,0l0,0L32,28L32,28z
	 M2,26c0,0.6,0.4,1,1,1h26c0.6,0,1-0.4,1-1V6L16.7,16.7c0,0,0,0,0,0.1C16.5,16.9,16.3,17,16,17c-0.3,0-0.5-0.1-0.7-0.3
	c0,0,0,0,0-0.1L2,6V26z M16,14.7L28.1,5H3.9L16,14.7z"/>
</svg>
