<?xml version="1.0" encoding="utf-8"?>
<!-- Generator: Adobe Illustrator 19.1.0, SVG Export Plug-In . SVG Version: 6.00 Build 0)  -->
<!DOCTYPE svg PUBLIC "-//W3C//DTD SVG 1.0//EN" "http://www.w3.org/TR/2001/REC-SVG-20010904/DTD/svg10.dtd">
<svg version="1.0" id="Layer_1" xmlns="http://www.w3.org/2000/svg" xmlns:xlink="http://www.w3.org/1999/xlink" x="0px" y="0px"
	 width="24px" height="24px" viewBox="0 0 24 24" style="enable-background:new 0 0 24 24;" xml:space="preserve">
<path d="M24,12c0,6.6-5.4,12-12,12S0,18.6,0,12S5.4,0,12,0S24,5.4,24,12z M12,16.5c-0.8,0-1.5,0.7-1.5,1.5s0.7,1.5,1.5,1.5
	s1.5-0.7,1.5-1.5S12.8,16.5,12,16.5z M13,14l0.6-8.4c0-0.5-0.3-0.9-0.8-0.9h-1.6c-0.5,0-0.9,0.4-0.8,0.9L11,14
	c0,0.4,0.3,0.7,0.7,0.7h0.7C12.7,14.7,13,14.4,13,14z"/>
</svg>
