<?xml version="1.0" encoding="utf-8"?>
<!-- Generator: Adobe Illustrator 19.1.0, SVG Export Plug-In . SVG Version: 6.00 Build 0)  -->
<!DOCTYPE svg PUBLIC "-//W3C//DTD SVG 1.1//EN" "http://www.w3.org/Graphics/SVG/1.1/DTD/svg11.dtd">
<svg version="1.1" id="duplicate-file" xmlns="http://www.w3.org/2000/svg" xmlns:xlink="http://www.w3.org/1999/xlink" x="0px"
	 y="0px" width="32px" height="32px" viewBox="0 0 32 32" style="enable-background:new 0 0 32 32;" xml:space="preserve">
<style type="text/css">
	.st0{fill:#C0C6CC;}
</style>
<g id="duplicate-file-disabled-warm-gray-dark">
	<g id="XMLID_183_">
		<path id="XMLID_200_" class="st0" d="M30.6,7.3h-9.9v1.4v3.2v1.4v2.5v1.4v2.5v1.4v2c0,0.2,0,0.3-0.1,0.5c-0.1,0.4-0.2,0.8-0.4,1.2
			c-0.1,0.1-0.1,0.2-0.2,0.3c-0.6,0.8-1.6,1.4-2.7,1.4h-4.2v2.4c0,0.8,0.6,1.4,1.4,1.4h16c0.8,0,1.4-0.6,1.4-1.4V8.7
			C32,8,31.4,7.3,30.6,7.3z M24.7,25.2h-2.5c0.2-0.4,0.3-0.9,0.3-1.4h2.2V25.2z M28.2,21.2h-5.6v-1.4h5.6V21.2z M28.2,17.3h-5.6
			v-1.4h5.6V17.3z M28.2,13.3h-5.6v-1.4h5.6V13.3z"/>
		<path id="XMLID_184_" class="st0" d="M16.9,24.7h0.5c0.6,0,1.1-0.4,1.3-0.9c0.1-0.2,0.1-0.3,0.1-0.5v-2v-0.3v-1.1v-2.5v-1.4v-2.5
			v-1.4V8.7V7.3V6.4V5.4V3.1c0-0.8-0.6-1.4-1.4-1.4h-16C0.6,1.7,0,2.3,0,3.1v20.2c0,0.8,0.6,1.4,1.4,1.4h9.9h0.9h0.9H16.9z M3.8,6.3
			h8.7h2.6v0.1v0.9v0.4h-1.4h-1.2h-1H3.8V6.3z M3.8,10.2h7.5h0.9h0.9h1.9v1.4h-1.9h-0.9h-0.9H3.8V10.2z M11.6,19.5h-0.3H3.8v-1.4
			h7.5h0.3V19.5z M12.2,15.6h-0.9H3.8v-1.4h7.5h0.9h0.9h1.9v1.4h-1.9H12.2z"/>
	</g>
</g>
</svg>
