<?xml version="1.0" encoding="utf-8"?>
<!-- Generator: Adobe Illustrator 19.1.0, SVG Export Plug-In . SVG Version: 6.00 Build 0)  -->
<!DOCTYPE svg PUBLIC "-//W3C//DTD SVG 1.0//EN" "http://www.w3.org/TR/2001/REC-SVG-20010904/DTD/svg10.dtd">
<svg version="1.0" id="Layer_1" xmlns="http://www.w3.org/2000/svg" xmlns:xlink="http://www.w3.org/1999/xlink" x="0px" y="0px"
	 width="32px" height="32px" viewBox="0 0 32 32" style="enable-background:new 0 0 32 32;" xml:space="preserve">
<style type="text/css">
	.st0{fill:#2080C3;}
</style>
<g id="Hover_2_">
	<path id="XMLID_340_" class="st0" d="M10,14.5c0-3.3,2.7-6,6-6c0.5,0,1,0.1,1.4,0.2l1.5-2.3C18,6.1,17,6,16,6C7.7,6,1,14.5,1,14.5
		s3.4,4.2,8.2,6.7l2-3.1C10.5,17.1,10,15.9,10,14.5z"/>
	<path id="XMLID_365_" class="st0" d="M22.8,7.8l1.4-2.3l-1.7-1.1l-1.6,2.5l-1.6,2.6l-1.4,2.1l-3.8,5.9l-1.4,2L11.1,22l-1.6,2.5
		l1.7,1.1l1.9-3c0.9,0.2,1.9,0.3,2.9,0.3c8.3,0,15-8.5,15-8.5S27.6,10.3,22.8,7.8z M16,20.5c-0.5,0-1-0.1-1.4-0.2l1.5-2.3l3.1-4.8
		l1.5-2.3c0.8,1,1.2,2.3,1.2,3.6C22,17.8,19.3,20.5,16,20.5z"/>
</g>
</svg>
