<?xml version="1.0" encoding="utf-8"?>
<!-- Generator: Adobe Illustrator 19.1.0, SVG Export Plug-In . SVG Version: 6.00 Build 0)  -->
<!DOCTYPE svg PUBLIC "-//W3C//DTD SVG 1.1//EN" "http://www.w3.org/Graphics/SVG/1.1/DTD/svg11.dtd">
<svg version="1.1" id="print" xmlns="http://www.w3.org/2000/svg" xmlns:xlink="http://www.w3.org/1999/xlink" x="0px" y="0px"
	 width="32px" height="32px" viewBox="0 0 32 32" style="enable-background:new 0 0 32 32;" xml:space="preserve">
<style type="text/css">
	.st0{fill:#C0C6CC;}
</style>
<g id="print-disabled-warm-gray-dark">
	<rect id="XMLID_110_" x="7" y="0.4" class="st0" width="18" height="5.2"/>
	<path id="XMLID_107_" class="st0" d="M30.4,7.4H1.6C0.7,7.4,0,8.1,0,8.9v11.5h4.7v-7h22.6v7H32V8.9C32,8.1,31.3,7.4,30.4,7.4z
		 M28.6,11.2c-0.7,0-1.2-0.6-1.2-1.2c0-0.7,0.6-1.2,1.2-1.2c0.7,0,1.2,0.6,1.2,1.2C29.9,10.6,29.3,11.2,28.6,11.2z"/>
	<path id="XMLID_106_" class="st0" d="M23.7,29.8h-7.5c-2.7,0-1.4-6.5-1.4-6.5S8.4,24.9,8.3,22v-5.9H6.5v8.4L7,25l6.7,6.7h11.8V16.1
		h-1.8V29.8z"/>
</g>
</svg>
