<?xml version="1.0" encoding="utf-8"?>
<!-- Generator: Adobe Illustrator 19.1.0, SVG Export Plug-In . SVG Version: 6.00 Build 0)  -->
<!DOCTYPE svg PUBLIC "-//W3C//DTD SVG 1.0//EN" "http://www.w3.org/TR/2001/REC-SVG-20010904/DTD/svg10.dtd">
<svg version="1.0" id="trash" xmlns="http://www.w3.org/2000/svg" xmlns:xlink="http://www.w3.org/1999/xlink" x="0px" y="0px"
	 width="32px" height="32px" viewBox="0 0 32 32" style="enable-background:new 0 0 32 32;" xml:space="preserve">
<style type="text/css">
	.st0{fill:#005FA0;}
</style>
<path class="st0" d="M4,10v18c0,2.2,1.8,4,4,4h16c2.2,0,4-1.8,4-4V10H4z M12,26h-2V14h2V26z M17,26h-2V14h2V26z M22,26h-2V14h2V26z"
	/>
<path class="st0" d="M22,4V2c0-1.2-0.8-2-2-2h-8c-1.2,0-2,0.8-2,2v2H2v4h28V4H22z M12,2h8v2h-8V2z"/>
</svg>
