<?xml version="1.0" encoding="utf-8"?>
<!-- Generator: Adobe Illustrator 19.1.0, SVG Export Plug-In . SVG Version: 6.00 Build 0)  -->
<!DOCTYPE svg PUBLIC "-//W3C//DTD SVG 1.1//EN" "http://www.w3.org/Graphics/SVG/1.1/DTD/svg11.dtd">
<svg version="1.1" id="clock" xmlns="http://www.w3.org/2000/svg" xmlns:xlink="http://www.w3.org/1999/xlink" x="0px" y="0px"
	 width="32px" height="32px" viewBox="0 0 32 32" style="enable-background:new 0 0 32 32;" xml:space="preserve">
<style type="text/css">
	.st0{fill:#005FA0;}
</style>
<path id="XMLID_60_" class="st0" d="M16,2c7.7,0,14,6.3,14,14s-6.3,14-14,14S2,23.7,2,16S8.3,2,16,2 M16,0C7.2,0,0,7.2,0,16
	s7.2,16,16,16s16-7.2,16-16S24.8,0,16,0L16,0z"/>
<circle id="XMLID_59_" class="st0" cx="16" cy="16" r="2.5"/>
<rect id="XMLID_58_" x="15" y="5.9" class="st0" width="2" height="10"/>
<rect id="XMLID_57_" x="17.9" y="14.9" transform="matrix(-0.7071 0.7071 -0.7071 -0.7071 45.6692 18.9168)" class="st0" width="2" height="8"/>
</svg>
