<?xml version="1.0" encoding="utf-8"?>
<!-- Generator: Adobe Illustrator 19.1.0, SVG Export Plug-In . SVG Version: 6.00 Build 0)  -->
<!DOCTYPE svg PUBLIC "-//W3C//DTD SVG 1.0//EN" "http://www.w3.org/TR/2001/REC-SVG-20010904/DTD/svg10.dtd">
<svg version="1.0" id="Layer_1" xmlns="http://www.w3.org/2000/svg" xmlns:xlink="http://www.w3.org/1999/xlink" x="0px" y="0px"
	 width="16px" height="16px" viewBox="-297 389 16 16" style="enable-background:new -297 389 16 16;" xml:space="preserve">
<style type="text/css">
	.st0{fill:#004A79;}
</style>
<path id="XMLID_39_" class="st0" d="M-283.5,390h-1h-5h-5.5h-1v3h-1v1h1v3h-1v1h1v3h-1v1h1v3h12.5c1.4,0,2.5-1.1,2.5-2.5v-10
	C-281,391.1-282.1,390-283.5,390z M-285.5,391v5.4l-3,1.8V391H-285.5z M-282,402.5c0,0.8-0.7,1.5-1.5,1.5H-295v-2h1v-1h-1v-3h1v-1
	h-1v-3h1v-1h-1v-2h5.5v9l5-3v-6h1c0.8,0,1.5,0.7,1.5,1.5V402.5z"/>
</svg>
