<?xml version="1.0" encoding="utf-8"?>
<!-- Generator: Adobe Illustrator 19.0.0, SVG Export Plug-In . SVG Version: 6.00 Build 0)  -->
<!DOCTYPE svg PUBLIC "-//W3C//DTD SVG 1.1//EN" "http://www.w3.org/Graphics/SVG/1.1/DTD/svg11.dtd">
<svg version="1.1" xmlns="http://www.w3.org/2000/svg" xmlns:xlink="http://www.w3.org/1999/xlink" x="0px" y="0px"
	 viewBox="0 0 32 32" enable-background="new 0 0 32 32" xml:space="preserve">
<g id="AddressBook" display="none">
	<path id="XMLID_11_" display="inline" fill="#2080C3" d="M27,1h-2H15H4H2v6H0v2h2v6H0v2h2v6H0v2h2v6h25c2.8,0,5-2.2,5-5V6
		C32,3.2,29.8,1,27,1z M23,3v10.9l-6,3.6V3H23z M30,26c0,1.7-1.3,3-3,3H4v-4h2v-2H4v-6h2v-2H4V9h2V7H4V3h11v18l10-6V3h2
		c1.7,0,3,1.3,3,3V26z"/>
</g>
<g id="Calendar" display="none">
	<g id="icon-calendar-default">
		<path id="XMLID_31_" display="inline" fill="#2080C3" d="M29,4v26H2V4H29 M31,2H0v30h31V2L31,2z"/>
		<rect id="XMLID_30_" x="7" display="inline" fill="#2080C3" width="2" height="7"/>
		<rect id="XMLID_29_" x="22" display="inline" fill="#2080C3" width="2" height="7"/>
		<rect id="XMLID_28_" x="2" y="11" display="inline" fill="#2080C3" width="27" height="2"/>
		<rect id="XMLID_27_" x="5" y="16" display="inline" fill="#2080C3" width="5" height="4"/>
		<rect id="XMLID_26_" x="5" y="23" display="inline" fill="#2080C3" width="5" height="4"/>
		<rect id="XMLID_25_" x="13" y="16" display="inline" fill="#2080C3" width="5" height="4"/>
		<rect id="XMLID_24_" x="21" y="16" display="inline" fill="#2080C3" width="5" height="4"/>
		<rect id="XMLID_23_" x="13" y="23" display="inline" fill="#2080C3" width="5" height="4"/>
	</g>
	<g id="icon-calendar-active" display="inline">
		<path id="XMLID_74_" fill="#005FA0" d="M29,4v26H2V4H29 M31,2H0v30h31V2L31,2z"/>
		<rect id="XMLID_73_" x="7" fill="#005FA0" width="2" height="7"/>
		<rect id="XMLID_70_" x="22" fill="#005FA0" width="2" height="7"/>
		<rect id="XMLID_69_" x="2" y="11" fill="#005FA0" width="27" height="2"/>
		<rect id="XMLID_68_" x="5" y="16" fill="#005FA0" width="5" height="4"/>
		<rect id="XMLID_67_" x="5" y="23" fill="#005FA0" width="5" height="4"/>
		<rect id="XMLID_64_" x="13" y="16" fill="#005FA0" width="5" height="4"/>
		<rect id="XMLID_65_" x="21" y="16" fill="#005FA0" width="5" height="4"/>
		<rect id="XMLID_63_" x="13" y="23" fill="#005FA0" width="5" height="4"/>
	</g>
	<g id="icon-calendar-disabled">
		<path id="XMLID_42_" display="inline" fill="#C0C6CC" d="M29,4v26H2V4H29 M31,2H0v30h31V2L31,2z"/>
		<rect id="XMLID_41_" x="7" display="inline" fill="#C0C6CC" width="2" height="7"/>
		<rect id="XMLID_40_" x="22" display="inline" fill="#C0C6CC" width="2" height="7"/>
		<rect id="XMLID_39_" x="2" y="11" display="inline" fill="#C0C6CC" width="27" height="2"/>
		<rect id="XMLID_38_" x="5" y="16" display="inline" fill="#C0C6CC" width="5" height="4"/>
		<rect id="XMLID_37_" x="5" y="23" display="inline" fill="#C0C6CC" width="5" height="4"/>
		<rect id="XMLID_36_" x="13" y="16" display="inline" fill="#C0C6CC" width="5" height="4"/>
		<rect id="XMLID_35_" x="21" y="16" display="inline" fill="#C0C6CC" width="5" height="4"/>
		<rect id="XMLID_34_" x="13" y="23" display="inline" fill="#C0C6CC" width="5" height="4"/>
	</g>
	<g id="icon-calendar-active-white">
		<path id="XMLID_90_" display="inline" fill="#FFFFFF" d="M29,4v26H2V4H29 M31,2H0v30h31V2L31,2z"/>
		<rect id="XMLID_88_" x="7" display="inline" fill="#FFFFFF" width="2" height="7"/>
		<rect id="XMLID_87_" x="22" display="inline" fill="#FFFFFF" width="2" height="7"/>
		<rect id="XMLID_85_" x="2" y="11" display="inline" fill="#FFFFFF" width="27" height="2"/>
		<rect id="XMLID_84_" x="5" y="16" display="inline" fill="#FFFFFF" width="5" height="4"/>
		<rect id="XMLID_83_" x="5" y="23" display="inline" fill="#FFFFFF" width="5" height="4"/>
		<rect id="XMLID_82_" x="13" y="16" display="inline" fill="#FFFFFF" width="5" height="4"/>
		<rect id="XMLID_80_" x="21" y="16" display="inline" fill="#FFFFFF" width="5" height="4"/>
		<rect id="XMLID_45_" x="13" y="23" display="inline" fill="#FFFFFF" width="5" height="4"/>
	</g>
</g>
<g id="Lock" display="none">
	<g id="icon-lock-locked">
		<path id="XMLID_1395_" display="inline" fill="#333333" d="M26,14.6V9.2C26,5.1,23.2,2,19,2h-6C8.9,2,6,5.1,6,9.2v5.4
			c-2,0.8-4,3-4,5.6v6C2,29.5,4.7,32,8,32h16c3.3,0,6-2.5,6-5.8v-6C30,17.6,28,15.4,26,14.6z M16,26.6c-1.9,0-3.4-1.5-3.4-3.4
			s1.5-3.4,3.4-3.4c1.9,0,3.4,1.5,3.4,3.4S17.9,26.6,16,26.6z M23,14H9V9.2C9,6.8,10.6,5,13,5h6c2.5,0,4,1.8,4,4.2V14z"/>
	</g>
	<g id="icon-lock-locked-disabled">
		<path id="XMLID_1405_" display="inline" fill="#C0C6CC" d="M26,14.6V9.2C26,5.1,23.2,2,19,2h-6C8.9,2,6,5.1,6,9.2v5.4
			c-2,0.8-4,3-4,5.6v6C2,29.5,4.7,32,8,32h16c3.3,0,6-2.5,6-5.8v-6C30,17.6,28,15.4,26,14.6z M16,26.6c-1.9,0-3.4-1.5-3.4-3.4
			s1.5-3.4,3.4-3.4c1.9,0,3.4,1.5,3.4,3.4S17.9,26.6,16,26.6z M23,14H9V9.2C9,6.8,10.6,5,13,5h6c2.5,0,4,1.8,4,4.2V14z"/>
	</g>
	<g id="icon-lock-unlocked-default">
		<path id="XMLID_1416_" display="inline" fill="#2080C3" d="M24,14H9.3l-1.3-2.8C7,9,8.8,6.5,11,5.5l4.6-2.1c2.2-1,4.3-0.3,5.3,2
			l1,2.2l2.7-1.2l-1-2.2C21.8,0.4,18-1,14.3,0.7L9.7,2.8c-3.5,1.6-6.2,5.7-4.4,9.7l0.8,1.9C3.8,15.1,2,17.4,2,20v6c0,3.3,2.7,6,6,6
			h16c3.3,0,6-2.7,6-6v-6C30,16.7,27.3,14,24,14z M16,26.4c-1.9,0-3.4-1.5-3.4-3.4s1.5-3.4,3.4-3.4s3.4,1.5,3.4,3.4
			S17.9,26.4,16,26.4z"/>
	</g>
	<g id="icon-lock-unlocked-active" display="inline">
		<path id="XMLID_1441_" fill="#005FA0" d="M24,14H9.3L8,11.2C7,9,8.7,6.5,10.9,5.5l4.6-2.1c2.2-1,4.3-0.3,5.3,2l1,2.2l2.7-1.2
			l-1-2.2C21.8,0.4,18-1,14.2,0.7L9.7,2.8c-3.5,1.6-6.2,5.7-4.4,9.7l0.8,1.9C3.7,15.1,2,17.4,2,20v6c0,3.3,2.7,6,6,6h16
			c3.3,0,6-2.7,6-6v-6C30,16.7,27.3,14,24,14z M16,26.4c-1.9,0-3.4-1.5-3.4-3.4s1.5-3.4,3.4-3.4s3.4,1.5,3.4,3.4S17.9,26.4,16,26.4z
			"/>
	</g>
</g>
<g id="Drag_Handle" display="none">
	<g id="icon-lock-locked_copy">
	</g>
	<g id="icon-lock-locked-disabled_copy">
	</g>
	<g id="icon-lock-unlocked-default_copy">
		<rect id="XMLID_5_" x="11" y="11" display="inline" fill="#FFFFFF" width="10" height="10"/>
		<rect id="XMLID_1_" x="17" y="14" display="inline" fill="#ACB3BC" width="2" height="2"/>
		<rect id="XMLID_4_" x="17" y="17" display="inline" fill="#ACB3BC" width="2" height="2"/>
		<rect id="XMLID_3_" x="14" y="17" display="inline" fill="#ACB3BC" width="2" height="2"/>
		<g id="XMLID_6_" display="inline">
			<defs>
				<rect id="XMLID_12_" x="-628" y="-504" width="1280" height="1024"/>
			</defs>
			<clipPath id="XMLID_372_">
				<use xlink:href="#XMLID_12_"  overflow="visible"/>
			</clipPath>
			<g id="XMLID_7_" clip-path="url(#XMLID_372_)">
				<defs>
					
						<rect id="XMLID_9_" x="-149.2" y="66" transform="matrix(-0.7071 -0.7071 0.7071 -0.7071 -298.3711 9.4315)" width="4" height="1"/>
				</defs>
				<clipPath id="XMLID_373_">
					<use xlink:href="#XMLID_9_"  overflow="visible"/>
				</clipPath>
				
					<rect id="XMLID_8_" x="-154.2" y="61" transform="matrix(-0.7071 -0.7071 0.7071 -0.7071 -298.3711 9.4314)" clip-path="url(#XMLID_373_)" fill="#C0C6CC" width="14" height="11"/>
			</g>
		</g>
		<g id="XMLID_13_" display="inline">
			<defs>
				<rect id="XMLID_17_" x="-628" y="-504" width="1280" height="1024"/>
			</defs>
			<clipPath id="XMLID_374_">
				<use xlink:href="#XMLID_17_"  overflow="visible"/>
			</clipPath>
			<g id="XMLID_14_" clip-path="url(#XMLID_374_)">
				<defs>
					
						<rect id="XMLID_16_" x="-144.6" y="61.9" transform="matrix(-0.7071 -0.7071 0.7071 -0.7071 -292.1891 9.8708)" width="1" height="7"/>
				</defs>
				<clipPath id="XMLID_375_">
					<use xlink:href="#XMLID_16_"  overflow="visible"/>
				</clipPath>
				
					<rect id="XMLID_15_" x="-149.6" y="56.9" transform="matrix(-0.7071 -0.7071 0.7071 -0.7071 -292.1891 9.8708)" clip-path="url(#XMLID_375_)" fill="#C0C6CC" width="11" height="17"/>
			</g>
		</g>
	</g>
	<g id="icon-lock-unlocked-active_copy" display="inline">
		<rect id="XMLID_19_" x="21" y="1" fill="#C0C6CC" width="10" height="10"/>
		<rect id="XMLID_21_" x="21" y="21" fill="#C0C6CC" width="10" height="10"/>
		<rect id="XMLID_22_" x="1" y="21" fill="#C0C6CC" width="10" height="10"/>
	</g>
</g>
<g id="down-arrow" display="none">
	<polygon id="XMLID_20_" display="inline" fill="#2080C3" points="15,16 11,12 19,12 	"/>
</g>
<g id="checkmark" display="none">
	<polygon id="icon-checkmark-active" fill="#2080C3" points="32,6.9 29.1,4 11.6,21.5 2.9,12.7 0,15.6 8.7,24.4 11.6,27.3 
		14.5,24.4 14.5,24.4 	"/>
	<polygon id="icon-checkmark-disabled" display="inline" fill="#ACB3BC" points="32,6.9 29.1,4 11.6,21.5 2.9,12.7 0,15.6 8.7,24.4 
		11.6,27.3 14.5,24.4 14.5,24.4 	"/>
	<polygon id="icon-checkmark-white" fill="#FFFFFF" points="32,6.9 29.1,4 11.6,21.5 2.9,12.7 0,15.6 8.7,24.4 11.6,27.3 14.5,24.4 
		14.5,24.4 	"/>
</g>
<g id="clock" display="none">
	<g id="default-blue-base">
		<g id="XMLID_47_" display="inline">
			<path id="XMLID_60_" fill="#2080C3" d="M16,2c7.7,0,14,6.3,14,14s-6.3,14-14,14S2,23.7,2,16S8.3,2,16,2 M16,0C7.2,0,0,7.2,0,16
				s7.2,16,16,16s16-7.2,16-16S24.8,0,16,0L16,0z"/>
		</g>
		<g id="XMLID_49_" display="inline">
			<circle id="XMLID_77_" fill="#2080C3" cx="16" cy="16" r="2.5"/>
		</g>
		<rect id="XMLID_48_" x="15" y="5.9" display="inline" fill="#2080C3" width="2" height="10"/>
		
			<rect id="XMLID_51_" x="17.9" y="14.9" transform="matrix(-0.7071 0.7071 -0.7071 -0.7071 45.6692 18.9168)" display="inline" fill="#2080C3" width="2" height="8"/>
	</g>
	<g id="active-white">
		<g id="XMLID_54_" display="inline">
			<path id="XMLID_58_" fill="#2080C3" d="M16,2c7.7,0,14,6.3,14,14s-6.3,14-14,14S2,23.7,2,16S8.3,2,16,2 M16,0C7.2,0,0,7.2,0,16
				s7.2,16,16,16s16-7.2,16-16S24.8,0,16,0L16,0z"/>
		</g>
		<g id="XMLID_50_" display="inline">
			<circle id="XMLID_53_" fill="#2080C3" cx="16" cy="16" r="2.5"/>
		</g>
		<rect id="XMLID_71_" x="15" y="5.9" display="inline" fill="#2080C3" width="2" height="10"/>
		
			<rect id="XMLID_72_" x="17.9" y="14.9" transform="matrix(-0.7071 0.7071 -0.7071 -0.7071 45.6692 18.9168)" display="inline" fill="#2080C3" width="2" height="8"/>
	</g>
	<g id="active-blue-dark" display="inline">
		<g id="XMLID_81_">
			<path id="XMLID_93_" fill="#C0C6CC" d="M16,2c7.7,0,14,6.3,14,14s-6.3,14-14,14S2,23.7,2,16S8.3,2,16,2 M16,0C7.2,0,0,7.2,0,16
				s7.2,16,16,16s16-7.2,16-16S24.8,0,16,0L16,0z"/>
		</g>
		<g id="XMLID_78_">
			<circle id="XMLID_97_" fill="#C0C6CC" cx="16" cy="16" r="2.5"/>
		</g>
		<rect id="XMLID_79_" x="15" y="5.9" fill="#C0C6CC" width="2" height="10"/>
		
			<rect id="XMLID_96_" x="17.9" y="14.9" transform="matrix(-0.7071 0.7071 -0.7071 -0.7071 45.6692 18.9168)" fill="#C0C6CC" width="2" height="8"/>
	</g>
</g>
<g id="chevron" display="none">
	<polygon id="chevron-down-default-blue-base" fill="#2080C3" points="15.8,24 0,11.1 2.5,8 15.8,18.9 29.5,8 32,11.1 	"/>
	<polygon id="chevron-down-active-white" fill="#FFFFFF" points="15.8,24 0,11.1 2.5,8 15.8,18.9 29.5,8 32,11.1 	"/>
	<polygon id="chevron-down-active-blue-dark" display="inline" fill="#005FA0" points="15.8,24 0,11.1 2.5,8 15.8,18.9 29.5,8 
		32,11.1 	"/>
</g>
<g id="print" display="none">
	<g id="print-default-black" display="inline">
		<rect id="XMLID_100_" x="7" y="0.4" fill="#333333" width="18" height="5.2"/>
		<path id="XMLID_98_" fill="#333333" d="M30.4,7.4H1.6C0.7,7.4,0,8.1,0,8.9v11.5h4.7v-7h22.6v7H32V8.9C32,8.1,31.3,7.4,30.4,7.4z
			 M28.6,11.2c-0.7,0-1.2-0.6-1.2-1.2c0-0.7,0.6-1.2,1.2-1.2c0.7,0,1.2,0.6,1.2,1.2C29.9,10.6,29.3,11.2,28.6,11.2z"/>
		<path id="XMLID_102_" fill="#333333" d="M23.7,29.8h-7.5c-2.7,0-1.4-6.5-1.4-6.5S8.4,24.9,8.3,22v-5.9H6.5v8.4L7,25l6.7,6.7h11.8
			V16.1h-1.8V29.8z"/>
	</g>
	<g id="print-hover-blue-base_1_">
		<rect id="XMLID_105_" x="7" y="0.4" display="inline" fill="#2080C3" width="18" height="5.2"/>
		<path id="XMLID_103_" display="inline" fill="#2080C3" d="M30.4,7.4H1.6C0.7,7.4,0,8.1,0,8.9v11.5h4.7v-7h22.6v7H32V8.9
			C32,8.1,31.3,7.4,30.4,7.4z M28.6,11.2c-0.7,0-1.2-0.6-1.2-1.2c0-0.7,0.6-1.2,1.2-1.2c0.7,0,1.2,0.6,1.2,1.2
			C29.9,10.6,29.3,11.2,28.6,11.2z"/>
		<path id="XMLID_107_" display="inline" fill="#2080C3" d="M23.7,29.8h-7.5c-2.7,0-1.4-6.5-1.4-6.5S8.4,24.9,8.3,22v-5.9H6.5v8.4
			L7,25l6.7,6.7h11.8V16.1h-1.8V29.8z"/>
	</g>
	<g id="print-disabled-warm-gray-dark">
		<rect id="XMLID_110_" x="7" y="0.4" display="inline" fill="#C0C6CC" width="18" height="5.2"/>
		<path id="XMLID_108_" display="inline" fill="#C0C6CC" d="M30.4,7.4H1.6C0.7,7.4,0,8.1,0,8.9v11.5h4.7v-7h22.6v7H32V8.9
			C32,8.1,31.3,7.4,30.4,7.4z M28.6,11.2c-0.7,0-1.2-0.6-1.2-1.2c0-0.7,0.6-1.2,1.2-1.2c0.7,0,1.2,0.6,1.2,1.2
			C29.9,10.6,29.3,11.2,28.6,11.2z"/>
		<path id="XMLID_112_" display="inline" fill="#C0C6CC" d="M23.7,29.8h-7.5c-2.7,0-1.4-6.5-1.4-6.5S8.4,24.9,8.3,22v-5.9H6.5v8.4
			L7,25l6.7,6.7h11.8V16.1h-1.8V29.8z"/>
	</g>
	<g id="print-active-blue-dark">
		<rect id="XMLID_115_" x="7" y="0.4" display="inline" fill="#005FA0" width="18" height="5.2"/>
		<path id="XMLID_113_" display="inline" fill="#005FA0" d="M30.4,7.4H1.6C0.7,7.4,0,8.1,0,8.9v11.5h4.7v-7h22.6v7H32V8.9
			C32,8.1,31.3,7.4,30.4,7.4z M28.6,11.2c-0.7,0-1.2-0.6-1.2-1.2c0-0.7,0.6-1.2,1.2-1.2c0.7,0,1.2,0.6,1.2,1.2
			C29.9,10.6,29.3,11.2,28.6,11.2z"/>
		<path id="XMLID_117_" display="inline" fill="#005FA0" d="M23.7,29.8h-7.5c-2.7,0-1.4-6.5-1.4-6.5S8.4,24.9,8.3,22v-5.9H6.5v8.4
			L7,25l6.7,6.7h11.8V16.1h-1.8V29.8z"/>
	</g>
</g>
<g id="filter" display="none">
	<g id="filter-default-black" display="inline">
		<path id="XMLID_118_" fill="#333333" d="M31.1,6.7L19.4,21.6h0.1v8.5c0,0-0.8,0.9-3.4,0.9s-3.4-0.9-3.4-0.9v-8.5L0.9,6.7
			C4.2,7.8,9.7,8.5,16,8.5c4.9,0,9.3-0.4,12.5-1.1C29.5,7.2,30.3,6.9,31.1,6.7z M31.4,3.2c-0.7-0.4-1.9-0.8-3.4-1.1
			c-3-0.6-7.3-1.1-12-1.1C9.6,1,3.9,1.8,1.3,2.9C0.6,3.1,0.2,3.4,0,3.5c0.1,0.1,0.2,0.1,0.3,0.2c0.1,0,0.1,0.1,0.2,0.1
			C1.3,4.3,2.5,4.6,4,5C7,5.6,11.3,6,16,6c6.4,0,12.1-0.8,14.7-1.8c0.4-0.1,0.7-0.3,0.9-0.4c0.1-0.1,0.3-0.2,0.3-0.2
			C31.9,3.4,31.7,3.3,31.4,3.2z"/>
	</g>
	<g id="filter-hover-blue-base">
		<path id="XMLID_119_" display="inline" fill="#2080C3" d="M31.1,6.7L19.4,21.6h0.1v8.5c0,0-0.8,0.9-3.4,0.9s-3.4-0.9-3.4-0.9v-8.5
			L0.9,6.7C4.2,7.8,9.7,8.5,16,8.5c4.9,0,9.3-0.4,12.5-1.1C29.5,7.2,30.3,6.9,31.1,6.7z M31.4,3.2c-0.7-0.4-1.9-0.8-3.4-1.1
			c-3-0.6-7.3-1.1-12-1.1C9.6,1,3.9,1.8,1.3,2.9C0.6,3.1,0.2,3.4,0,3.5c0.1,0.1,0.2,0.1,0.3,0.2c0.1,0,0.1,0.1,0.2,0.1
			C1.3,4.3,2.5,4.6,4,5C7,5.6,11.3,6,16,6c6.4,0,12.1-0.8,14.7-1.8c0.4-0.1,0.7-0.3,0.9-0.4c0.1-0.1,0.3-0.2,0.3-0.2
			C31.9,3.4,31.7,3.3,31.4,3.2z"/>
	</g>
	<g id="filter-active-blue-dark">
		<path id="XMLID_122_" display="inline" fill="#005FA0" d="M31.1,6.7L19.4,21.6h0.1v8.5c0,0-0.8,0.9-3.4,0.9s-3.4-0.9-3.4-0.9v-8.5
			L0.9,6.7C4.2,7.8,9.7,8.5,16,8.5c4.9,0,9.3-0.4,12.5-1.1C29.5,7.2,30.3,6.9,31.1,6.7z M31.4,3.2c-0.7-0.4-1.9-0.8-3.4-1.1
			c-3-0.6-7.3-1.1-12-1.1C9.6,1,3.9,1.8,1.3,2.9C0.6,3.1,0.2,3.4,0,3.5c0.1,0.1,0.2,0.1,0.3,0.2c0.1,0,0.1,0.1,0.2,0.1
			C1.3,4.3,2.5,4.6,4,5C7,5.6,11.3,6,16,6c6.4,0,12.1-0.8,14.7-1.8c0.4-0.1,0.7-0.3,0.9-0.4c0.1-0.1,0.3-0.2,0.3-0.2
			C31.9,3.4,31.7,3.3,31.4,3.2z"/>
	</g>
	<g id="filter-active-warm-gray-dark">
		<path id="XMLID_125_" display="inline" fill="#C0C6CC" d="M31.1,6.7L19.4,21.6h0.1v8.5c0,0-0.8,0.9-3.4,0.9s-3.4-0.9-3.4-0.9v-8.5
			L0.9,6.7C4.2,7.8,9.7,8.5,16,8.5c4.9,0,9.3-0.4,12.5-1.1C29.5,7.2,30.3,6.9,31.1,6.7z M31.4,3.2c-0.7-0.4-1.9-0.8-3.4-1.1
			c-3-0.6-7.3-1.1-12-1.1C9.6,1,3.9,1.8,1.3,2.9C0.6,3.1,0.2,3.4,0,3.5c0.1,0.1,0.2,0.1,0.3,0.2c0.1,0,0.1,0.1,0.2,0.1
			C1.3,4.3,2.5,4.6,4,5C7,5.6,11.3,6,16,6c6.4,0,12.1-0.8,14.7-1.8c0.4-0.1,0.7-0.3,0.9-0.4c0.1-0.1,0.3-0.2,0.3-0.2
			C31.9,3.4,31.7,3.3,31.4,3.2z"/>
	</g>
</g>
<g id="trash" display="none">
	<path id="trash-default-black" fill="#333333" d="M5,28c0,2.2,1.8,4,4,4h14c2.2,0,4-1.8,4-4V12H5V28z M20,15h2v12c0,0.6-0.4,1-1,1
		c-0.6,0-1-0.4-1-1V15z M15,15h2v12c0,0.6-0.4,1-1,1s-1-0.4-1-1V15z M10,15h2v12c0,0.6-0.4,1-1,1c-0.6,0-1-0.4-1-1V15z M27,4h-6V2
		c0-1.1-0.9-2-2-2h-6c-1.1,0-2,0.9-2,2v2H5C3.9,4,3,4.9,3,6v2c0,1.1,0.9,2,2,2h22c1.1,0,2-0.9,2-2V6C29,4.9,28.1,4,27,4z M19,4h-6V3
		c0-0.6,0.4-1,1-1h4c0.6,0,1,0.4,1,1V4z"/>
	<path id="trash-hover-blue-base" fill="#2080C3" d="M5,28c0,2.2,1.8,4,4,4h14c2.2,0,4-1.8,4-4V12H5V28z M20,15h2v12
		c0,0.6-0.4,1-1,1c-0.6,0-1-0.4-1-1V15z M15,15h2v12c0,0.6-0.4,1-1,1s-1-0.4-1-1V15z M10,15h2v12c0,0.6-0.4,1-1,1c-0.6,0-1-0.4-1-1
		V15z M27,4h-6V2c0-1.1-0.9-2-2-2h-6c-1.1,0-2,0.9-2,2v2H5C3.9,4,3,4.9,3,6v2c0,1.1,0.9,2,2,2h22c1.1,0,2-0.9,2-2V6
		C29,4.9,28.1,4,27,4z M19,4h-6V3c0-0.6,0.4-1,1-1h4c0.6,0,1,0.4,1,1V4z"/>
	<path id="trash-active-blue-dark" fill="#005FA0" d="M5,28c0,2.2,1.8,4,4,4h14c2.2,0,4-1.8,4-4V12H5V28z M20,15h2v12
		c0,0.6-0.4,1-1,1c-0.6,0-1-0.4-1-1V15z M15,15h2v12c0,0.6-0.4,1-1,1s-1-0.4-1-1V15z M10,15h2v12c0,0.6-0.4,1-1,1c-0.6,0-1-0.4-1-1
		V15z M27,4h-6V2c0-1.1-0.9-2-2-2h-6c-1.1,0-2,0.9-2,2v2H5C3.9,4,3,4.9,3,6v2c0,1.1,0.9,2,2,2h22c1.1,0,2-0.9,2-2V6
		C29,4.9,28.1,4,27,4z M19,4h-6V3c0-0.6,0.4-1,1-1h4c0.6,0,1,0.4,1,1V4z"/>
	<path id="trash-disabled-gray-warm-dark" display="inline" fill="#C0C6CC" d="M5,28c0,2.2,1.8,4,4,4h14c2.2,0,4-1.8,4-4V12H5V28z
		 M20,15h2v12c0,0.6-0.4,1-1,1c-0.6,0-1-0.4-1-1V15z M15,15h2v12c0,0.6-0.4,1-1,1s-1-0.4-1-1V15z M10,15h2v12c0,0.6-0.4,1-1,1
		c-0.6,0-1-0.4-1-1V15z M27,4h-6V2c0-1.1-0.9-2-2-2h-6c-1.1,0-2,0.9-2,2v2H5C3.9,4,3,4.9,3,6v2c0,1.1,0.9,2,2,2h22c1.1,0,2-0.9,2-2
		V6C29,4.9,28.1,4,27,4z M19,4h-6V3c0-0.6,0.4-1,1-1h4c0.6,0,1,0.4,1,1V4z"/>
</g>
<g id="duplicate-file" display="none">
	<g id="duplicate-file-default-black" display="inline">
		<g id="XMLID_162_">
			<path id="XMLID_163_" fill="#333333" d="M30.6,7.3h-9.9v1.4v3.2v1.4v2.5v1.4v2.5v1.4v2c0,0.2,0,0.3-0.1,0.5
				c-0.1,0.4-0.2,0.8-0.4,1.2c-0.1,0.1-0.1,0.2-0.2,0.3c-0.6,0.8-1.6,1.4-2.7,1.4h-4.2v2.4c0,0.8,0.6,1.4,1.4,1.4h16
				c0.8,0,1.4-0.6,1.4-1.4V8.7C32,8,31.4,7.3,30.6,7.3z M24.7,25.2h-2.5c0.2-0.4,0.3-0.9,0.3-1.4h2.2V25.2z M28.2,21.2h-5.6v-1.4
				h5.6V21.2z M28.2,17.3h-5.6v-1.4h5.6V17.3z M28.2,13.3h-5.6v-1.4h5.6V13.3z"/>
			<path id="XMLID_164_" fill="#333333" d="M16.9,24.7h0.5c0.6,0,1.1-0.4,1.3-0.9c0.1-0.2,0.1-0.3,0.1-0.5v-2v-0.3v-1.1v-2.5v-1.4
				v-2.5v-1.4V8.7V7.3V6.4V5.4V3.1c0-0.8-0.6-1.4-1.4-1.4h-16C0.6,1.7,0,2.3,0,3.1v20.2c0,0.8,0.6,1.4,1.4,1.4h9.9h0.9h0.9H16.9z
				 M3.8,6.3h8.7h2.6v0.1v0.9v0.4h-1.4h-1.2h-1H3.8V6.3z M3.8,10.2h7.5h0.9h0.9h1.9v1.4h-1.9h-0.9h-0.9H3.8V10.2z M11.6,19.5h-0.3
				H3.8v-1.4h7.5h0.3V19.5z M12.2,15.6h-0.9H3.8v-1.4h7.5h0.9h0.9h1.9v1.4h-1.9H12.2z"/>
		</g>
	</g>
	<g id="duplicate-file-hover-blue-base">
		<g id="XMLID_165_" display="inline">
			<path id="XMLID_166_" fill="#2080C3" d="M30.6,7.3h-9.9v1.4v3.2v1.4v2.5v1.4v2.5v1.4v2c0,0.2,0,0.3-0.1,0.5
				c-0.1,0.4-0.2,0.8-0.4,1.2c-0.1,0.1-0.1,0.2-0.2,0.3c-0.6,0.8-1.6,1.4-2.7,1.4h-4.2v2.4c0,0.8,0.6,1.4,1.4,1.4h16
				c0.8,0,1.4-0.6,1.4-1.4V8.7C32,8,31.4,7.3,30.6,7.3z M24.7,25.2h-2.5c0.2-0.4,0.3-0.9,0.3-1.4h2.2V25.2z M28.2,21.2h-5.6v-1.4
				h5.6V21.2z M28.2,17.3h-5.6v-1.4h5.6V17.3z M28.2,13.3h-5.6v-1.4h5.6V13.3z"/>
			<path id="XMLID_172_" fill="#2080C3" d="M16.9,24.7h0.5c0.6,0,1.1-0.4,1.3-0.9c0.1-0.2,0.1-0.3,0.1-0.5v-2v-0.3v-1.1v-2.5v-1.4
				v-2.5v-1.4V8.7V7.3V6.4V5.4V3.1c0-0.8-0.6-1.4-1.4-1.4h-16C0.6,1.7,0,2.3,0,3.1v20.2c0,0.8,0.6,1.4,1.4,1.4h9.9h0.9h0.9H16.9z
				 M3.8,6.3h8.7h2.6v0.1v0.9v0.4h-1.4h-1.2h-1H3.8V6.3z M3.8,10.2h7.5h0.9h0.9h1.9v1.4h-1.9h-0.9h-0.9H3.8V10.2z M11.6,19.5h-0.3
				H3.8v-1.4h7.5h0.3V19.5z M12.2,15.6h-0.9H3.8v-1.4h7.5h0.9h0.9h1.9v1.4h-1.9H12.2z"/>
		</g>
	</g>
	<g id="duplicate-file-active-blue-dark">
		<g id="XMLID_178_" display="inline">
			<path id="XMLID_179_" fill="#005FA0" d="M30.6,7.3h-9.9v1.4v3.2v1.4v2.5v1.4v2.5v1.4v2c0,0.2,0,0.3-0.1,0.5
				c-0.1,0.4-0.2,0.8-0.4,1.2c-0.1,0.1-0.1,0.2-0.2,0.3c-0.6,0.8-1.6,1.4-2.7,1.4h-4.2v2.4c0,0.8,0.6,1.4,1.4,1.4h16
				c0.8,0,1.4-0.6,1.4-1.4V8.7C32,8,31.4,7.3,30.6,7.3z M24.7,25.2h-2.5c0.2-0.4,0.3-0.9,0.3-1.4h2.2V25.2z M28.2,21.2h-5.6v-1.4
				h5.6V21.2z M28.2,17.3h-5.6v-1.4h5.6V17.3z M28.2,13.3h-5.6v-1.4h5.6V13.3z"/>
			<path id="XMLID_185_" fill="#005FA0" d="M16.9,24.7h0.5c0.6,0,1.1-0.4,1.3-0.9c0.1-0.2,0.1-0.3,0.1-0.5v-2v-0.3v-1.1v-2.5v-1.4
				v-2.5v-1.4V8.7V7.3V6.4V5.4V3.1c0-0.8-0.6-1.4-1.4-1.4h-16C0.6,1.7,0,2.3,0,3.1v20.2c0,0.8,0.6,1.4,1.4,1.4h9.9h0.9h0.9H16.9z
				 M3.8,6.3h8.7h2.6v0.1v0.9v0.4h-1.4h-1.2h-1H3.8V6.3z M3.8,10.2h7.5h0.9h0.9h1.9v1.4h-1.9h-0.9h-0.9H3.8V10.2z M11.6,19.5h-0.3
				H3.8v-1.4h7.5h0.3V19.5z M12.2,15.6h-0.9H3.8v-1.4h7.5h0.9h0.9h1.9v1.4h-1.9H12.2z"/>
		</g>
	</g>
	<g id="duplicate-file-disabled-warm-gray-dark">
		<g id="XMLID_202_" display="inline">
			<path id="XMLID_203_" fill="#C0C6CC" d="M30.6,7.3h-9.9v1.4v3.2v1.4v2.5v1.4v2.5v1.4v2c0,0.2,0,0.3-0.1,0.5
				c-0.1,0.4-0.2,0.8-0.4,1.2c-0.1,0.1-0.1,0.2-0.2,0.3c-0.6,0.8-1.6,1.4-2.7,1.4h-4.2v2.4c0,0.8,0.6,1.4,1.4,1.4h16
				c0.8,0,1.4-0.6,1.4-1.4V8.7C32,8,31.4,7.3,30.6,7.3z M24.7,25.2h-2.5c0.2-0.4,0.3-0.9,0.3-1.4h2.2V25.2z M28.2,21.2h-5.6v-1.4
				h5.6V21.2z M28.2,17.3h-5.6v-1.4h5.6V17.3z M28.2,13.3h-5.6v-1.4h5.6V13.3z"/>
			<path id="XMLID_212_" fill="#C0C6CC" d="M16.9,24.7h0.5c0.6,0,1.1-0.4,1.3-0.9c0.1-0.2,0.1-0.3,0.1-0.5v-2v-0.3v-1.1v-2.5v-1.4
				v-2.5v-1.4V8.7V7.3V6.4V5.4V3.1c0-0.8-0.6-1.4-1.4-1.4h-16C0.6,1.7,0,2.3,0,3.1v20.2c0,0.8,0.6,1.4,1.4,1.4h9.9h0.9h0.9H16.9z
				 M3.8,6.3h8.7h2.6v0.1v0.9v0.4h-1.4h-1.2h-1H3.8V6.3z M3.8,10.2h7.5h0.9h0.9h1.9v1.4h-1.9h-0.9h-0.9H3.8V10.2z M11.6,19.5h-0.3
				H3.8v-1.4h7.5h0.3V19.5z M12.2,15.6h-0.9H3.8v-1.4h7.5h0.9h0.9h1.9v1.4h-1.9H12.2z"/>
		</g>
	</g>
</g>
<g id="move-file" display="none">
	<g id="move-file-default-black" display="inline">
		<polygon id="XMLID_218_" fill="#333333" points="19.6,16.8 25.8,16.8 25.8,19.3 32,15.7 25.8,12.1 25.8,14.7 19.6,14.7 		"/>
		<g id="XMLID_219_">
			<path id="XMLID_220_" fill="#333333" d="M15,6.1H1.2C0.5,6.1,0,6.7,0,7.3v17.3c0,0.7,0.5,1.2,1.2,1.2H15c0.7,0,1.2-0.5,1.2-1.2
				v-8.3v-1.3V7.3C16.2,6.7,15.6,6.1,15,6.1z M3.2,10.1h9.7v1.2H3.2V10.1z M3.2,13.5h9.7v1.2H3.2V13.5z M9.9,21.5H7.1H5.8H3.2v-1.2
				h2.6h1.3h2.8V21.5z M12.9,18.1H7.1H5.8H3.2v-1.2h2.6h1.3h5.8V18.1z"/>
		</g>
	</g>
	<g id="move-file-hover-blue-base">
		<polygon id="XMLID_243_" display="inline" fill="#2080C3" points="19.6,16.8 25.8,16.8 25.8,19.3 32,15.7 25.8,12.1 25.8,14.7 
			19.6,14.7 		"/>
		<g id="XMLID_244_" display="inline">
			<path id="XMLID_245_" fill="#2080C3" d="M15,6.1H1.2C0.5,6.1,0,6.7,0,7.3v17.3c0,0.7,0.5,1.2,1.2,1.2H15c0.7,0,1.2-0.5,1.2-1.2
				v-8.3v-1.3V7.3C16.2,6.7,15.6,6.1,15,6.1z M3.2,10.1h9.7v1.2H3.2V10.1z M3.2,13.5h9.7v1.2H3.2V13.5z M9.9,21.5H7.1H5.8H3.2v-1.2
				h2.6h1.3h2.8V21.5z M12.9,18.1H7.1H5.8H3.2v-1.2h2.6h1.3h5.8V18.1z"/>
		</g>
	</g>
	<g id="move-file-active-blue-base-dark">
		<polygon id="XMLID_251_" display="inline" fill="#005FA0" points="19.6,16.8 25.8,16.8 25.8,19.3 32,15.7 25.8,12.1 25.8,14.7 
			19.6,14.7 		"/>
		<g id="XMLID_252_" display="inline">
			<path id="XMLID_253_" fill="#005FA0" d="M15,6.1H1.2C0.5,6.1,0,6.7,0,7.3v17.3c0,0.7,0.5,1.2,1.2,1.2H15c0.7,0,1.2-0.5,1.2-1.2
				v-8.3v-1.3V7.3C16.2,6.7,15.6,6.1,15,6.1z M3.2,10.1h9.7v1.2H3.2V10.1z M3.2,13.5h9.7v1.2H3.2V13.5z M9.9,21.5H7.1H5.8H3.2v-1.2
				h2.6h1.3h2.8V21.5z M12.9,18.1H7.1H5.8H3.2v-1.2h2.6h1.3h5.8V18.1z"/>
		</g>
	</g>
	<g id="move-file-disabled-warm-gray-dark">
		<polygon id="XMLID_259_" display="inline" fill="#C0C6CC" points="19.6,16.8 25.8,16.8 25.8,19.3 32,15.7 25.8,12.1 25.8,14.7 
			19.6,14.7 		"/>
		<g id="XMLID_260_" display="inline">
			<path id="XMLID_261_" fill="#C0C6CC" d="M15,6.1H1.2C0.5,6.1,0,6.7,0,7.3v17.3c0,0.7,0.5,1.2,1.2,1.2H15c0.7,0,1.2-0.5,1.2-1.2
				v-8.3v-1.3V7.3C16.2,6.7,15.6,6.1,15,6.1z M3.2,10.1h9.7v1.2H3.2V10.1z M3.2,13.5h9.7v1.2H3.2V13.5z M9.9,21.5H7.1H5.8H3.2v-1.2
				h2.6h1.3h2.8V21.5z M12.9,18.1H7.1H5.8H3.2v-1.2h2.6h1.3h5.8V18.1z"/>
		</g>
	</g>
</g>
<g id="search" display="none">
	<path id="search-default" display="inline" fill="#2080C3" d="M32,29.7l-9.9-9.9c1.6-2.1,2.6-4.7,2.6-7.5c0-3.3-1.3-6.4-3.6-8.8
		c-4.7-4.7-12.8-4.7-17.4,0c-4.8,4.8-4.8,12.7,0,17.5c2.3,2.3,5.4,3.6,8.7,3.6c2.7,0,5.3-0.9,7.5-2.6l9.9,9.9L32,29.7z M5.9,18.7
		c-1.7-1.7-2.7-4-2.7-6.5s0.9-4.7,2.7-6.5s4-2.7,6.4-2.7s4.7,1,6.4,2.7c1.7,1.7,2.7,4,2.7,6.5s-0.9,4.7-2.7,6.5
		C15.3,22.2,9.3,22.2,5.9,18.7z"/>
</g>
<g id="More_-_2x10" display="none">
	<path id="_x32_x10" fill="#2080C3" d="M17,12.5c0,0.6-0.4,1-1,1c-0.6,0-1-0.4-1-1s0.4-1,1-1C16.6,11.5,17,11.9,17,12.5z M16,18.5
		c-0.6,0-1,0.4-1,1s0.4,1,1,1c0.6,0,1-0.4,1-1S16.6,18.5,16,18.5z M16,15c-0.6,0-1,0.4-1,1c0,0.6,0.4,1,1,1c0.6,0,1-0.4,1-1
		C17,15.4,16.6,15,16,15z"/>
	<path id="_x32_x10_1_" display="inline" fill="#2080C3" d="M19.6,3.6c0,2-1.6,3.6-3.6,3.6s-3.6-1.6-3.6-3.6S14,0,16,0
		S19.6,1.6,19.6,3.6z M16,24.9c-2,0-3.6,1.6-3.6,3.6S14,32,16,32s3.6-1.6,3.6-3.6S18,24.9,16,24.9z M16,12.4c-2,0-3.6,1.6-3.6,3.6
		s1.6,3.6,3.6,3.6s3.6-1.6,3.6-3.6S18,12.4,16,12.4z"/>
</g>
<g id="InlineEditor-Bold" display="none">
	<g id="XMLID_46_">
		<path id="XMLID_241_" display="inline" d="M27,5v22H5V5H27 M28,4H4v24h24V4L28,4z"/>
	</g>
	<text id="B-16" transform="matrix(1 0 0 1 11.168 20.696)" font-family="'MyriadPro-Bold'" font-size="16px">B</text>
	<text id="B-24" transform="matrix(1 0 0 1 8.752 25)" display="inline" font-family="'MyriadPro-Bold'" font-size="24px">B</text>
</g>
<g id="InlineEditor-Italic" display="none">
	<g id="XMLID_229_">
		<path id="XMLID_231_" display="inline" d="M27,5v22H5V5H27 M28,4H4v24h24V4L28,4z"/>
	</g>
	
		<text id="B-16_1_" transform="matrix(1 0 0 1 13.8081 20.696)" display="inline" font-family="'MyriadPro-BoldIt'" font-size="16px">I</text>
	<text id="B-24_1_" transform="matrix(1 0 0 1 8.752 25)" font-family="'MyriadPro-Bold'" font-size="24px">B</text>
	<rect id="XMLID_234_" x="11" y="20" display="inline" width="8" height="1"/>
	<rect id="XMLID_235_" x="13" y="10" display="inline" width="8" height="1"/>
</g>
<g id="InlineEditor-Underline" display="none">
	<g id="XMLID_239_">
		<path id="XMLID_269_" display="inline" d="M27,5v22H5V5H27 M28,4H4v24h24V4L28,4z"/>
	</g>
	<text id="B-16_2_" transform="matrix(1 0 0 1 13.8081 20.696)" font-family="'MyriadPro-BoldIt'" font-size="16px">I</text>
	<g id="XMLID_326_" display="inline">
		<path id="XMLID_327_" d="M13,8v6.9c0,2.8,1.1,4.2,3,4.2c1.9,0,3-1.3,3-4.2V8h4v6.6c0,5-2.9,7.4-7.1,7.4C11.8,22,9,19.7,9,14.6V8
			H13z"/>
	</g>
	<rect id="XMLID_238_" x="11" y="20" width="8" height="1"/>
	<rect id="XMLID_236_" x="13" y="10" width="8" height="1"/>
	<rect id="XMLID_272_" x="9" y="23" display="inline" width="14" height="2"/>
</g>
<g id="InlineEditor-Strikethrough" display="none">
	<g id="XMLID_276_">
		<path id="XMLID_278_" display="inline" d="M27,5v22H5V5H27 M28,4H4v24h24V4L28,4z"/>
	</g>
	<text id="B-16_3_" transform="matrix(1 0 0 1 13.8081 20.696)" font-family="'MyriadPro-BoldIt'" font-size="16px">I</text>
	<rect id="XMLID_273_" x="7" y="16" display="inline" width="18" height="2"/>
	<text id="B-24_3_" transform="matrix(1 0 0 1 9.52 25)" display="inline" font-family="'MyriadPro-Bold'" font-size="24px">S</text>
	<rect id="XMLID_274_" x="7" y="14" display="inline" fill="#FFFFFF" width="18" height="2"/>
</g>
<g id="Par-Align-Left" display="none">
	<g id="left-active_1_">
		<path id="XMLID_293_" display="inline" fill-rule="evenodd" clip-rule="evenodd" fill="#005FA0" d="M26,28H6c-1.1,0-2-0.9-2-2V6
			c0-1.1,0.9-2,2-2h20c1.1,0,2,0.9,2,2v20C28,27.1,27.1,28,26,28z"/>
		<path id="left-active" display="inline" fill-rule="evenodd" clip-rule="evenodd" fill="#FFFFFF" d="M22.5,11h-13
			C9.2,11,9,10.8,9,10.5C9,10.2,9.2,10,9.5,10h13c0.3,0,0.5,0.2,0.5,0.5C23,10.8,22.8,11,22.5,11z M9.5,14h9c0.3,0,0.5,0.2,0.5,0.5
			c0,0.3-0.2,0.5-0.5,0.5h-9C9.2,15,9,14.8,9,14.5C9,14.2,9.2,14,9.5,14z M9.5,18h13c0.3,0,0.5,0.2,0.5,0.5c0,0.3-0.2,0.5-0.5,0.5
			h-13C9.2,19,9,18.8,9,18.5C9,18.2,9.2,18,9.5,18z M9.5,22H17c0.3,0,0.5,0.2,0.5,0.5c0,0.3-0.2,0.5-0.5,0.5H9.5
			C9.2,23,9,22.8,9,22.5C9,22.2,9.2,22,9.5,22z"/>
	</g>
	<g id="left-hover_1_">
		<path id="XMLID_298_" display="inline" fill-rule="evenodd" clip-rule="evenodd" fill="#2080C3" d="M26,28H6c-1.1,0-2-0.9-2-2V6
			c0-1.1,0.9-2,2-2h20c1.1,0,2,0.9,2,2v20C28,27.1,27.1,28,26,28z"/>
		<path id="left-active_3_" display="inline" fill-rule="evenodd" clip-rule="evenodd" fill="#FFFFFF" d="M22.5,11h-13
			C9.2,11,9,10.8,9,10.5C9,10.2,9.2,10,9.5,10h13c0.3,0,0.5,0.2,0.5,0.5C23,10.8,22.8,11,22.5,11z M9.5,14h9c0.3,0,0.5,0.2,0.5,0.5
			c0,0.3-0.2,0.5-0.5,0.5h-9C9.2,15,9,14.8,9,14.5C9,14.2,9.2,14,9.5,14z M9.5,18h13c0.3,0,0.5,0.2,0.5,0.5c0,0.3-0.2,0.5-0.5,0.5
			h-13C9.2,19,9,18.8,9,18.5C9,18.2,9.2,18,9.5,18z M9.5,22H17c0.3,0,0.5,0.2,0.5,0.5c0,0.3-0.2,0.5-0.5,0.5H9.5
			C9.2,23,9,22.8,9,22.5C9,22.2,9.2,22,9.5,22z"/>
	</g>
	<g id="left-default_1_" display="inline">
		<path id="XMLID_303_" fill-rule="evenodd" clip-rule="evenodd" fill="none" d="M26,28H6c-1.1,0-2-0.9-2-2V6c0-1.1,0.9-2,2-2h20
			c1.1,0,2,0.9,2,2v20C28,27.1,27.1,28,26,28z"/>
		<path id="left-active_2_" fill-rule="evenodd" clip-rule="evenodd" fill="#333333" d="M22.5,11h-13C9.2,11,9,10.8,9,10.5
			C9,10.2,9.2,10,9.5,10h13c0.3,0,0.5,0.2,0.5,0.5C23,10.8,22.8,11,22.5,11z M9.5,14h9c0.3,0,0.5,0.2,0.5,0.5c0,0.3-0.2,0.5-0.5,0.5
			h-9C9.2,15,9,14.8,9,14.5C9,14.2,9.2,14,9.5,14z M9.5,18h13c0.3,0,0.5,0.2,0.5,0.5c0,0.3-0.2,0.5-0.5,0.5h-13
			C9.2,19,9,18.8,9,18.5C9,18.2,9.2,18,9.5,18z M9.5,22H17c0.3,0,0.5,0.2,0.5,0.5c0,0.3-0.2,0.5-0.5,0.5H9.5C9.2,23,9,22.8,9,22.5
			C9,22.2,9.2,22,9.5,22z"/>
	</g>
</g>
<g id="Par-Align-Center" display="none">
	<g id="left-active_6_">
		<path id="XMLID_309_" display="inline" fill-rule="evenodd" clip-rule="evenodd" fill="#005FA0" d="M26,28H6c-1.1,0-2-0.9-2-2V6
			c0-1.1,0.9-2,2-2h20c1.1,0,2,0.9,2,2v20C28,27.1,27.1,28,26,28z"/>
	</g>
	<g id="left-hover_2_">
		<path id="XMLID_304_" display="inline" fill-rule="evenodd" clip-rule="evenodd" fill="#2080C3" d="M26,28H6c-1.1,0-2-0.9-2-2V6
			c0-1.1,0.9-2,2-2h20c1.1,0,2,0.9,2,2v20C28,27.1,27.1,28,26,28z"/>
		<path id="XMLID_281_" display="inline" fill-rule="evenodd" clip-rule="evenodd" fill="#FFFFFF" d="M22.6,19H9.4
			c-0.3,0-0.5-0.2-0.5-0.5c0-0.3,0.2-0.5,0.5-0.5h13.1c0.3,0,0.5,0.2,0.5,0.5C23.1,18.8,22.8,19,22.6,19z M22.6,15h-9.1
			c-0.3,0-0.5-0.2-0.5-0.5c0-0.3,0.2-0.5,0.5-0.5h9.1c0.3,0,0.5,0.2,0.5,0.5C23.1,14.8,22.8,15,22.6,15z M22.6,11H9.4
			c-0.3,0-0.5-0.2-0.5-0.5c0-0.3,0.2-0.5,0.5-0.5h13.1c0.3,0,0.5,0.2,0.5,0.5C23.1,10.8,22.8,11,22.6,11z M15,22h7.6
			c0.3,0,0.5,0.2,0.5,0.5c0,0.3-0.2,0.5-0.5,0.5H15c-0.3,0-0.5-0.2-0.5-0.5C14.5,22.2,14.7,22,15,22z"/>
	</g>
	<g id="left-default_2_" display="inline">
		<path id="XMLID_285_" fill-rule="evenodd" clip-rule="evenodd" fill="none" d="M26,28H6c-1.1,0-2-0.9-2-2V6c0-1.1,0.9-2,2-2h20
			c1.1,0,2,0.9,2,2v20C28,27.1,27.1,28,26,28z"/>
		<path id="XMLID_310_" fill-rule="evenodd" clip-rule="evenodd" d="M22.6,19H9.4c-0.3,0-0.5-0.2-0.5-0.5c0-0.3,0.2-0.5,0.5-0.5
			h13.1c0.3,0,0.5,0.2,0.5,0.5C23.1,18.8,22.8,19,22.6,19z M22.6,15h-9.1c-0.3,0-0.5-0.2-0.5-0.5c0-0.3,0.2-0.5,0.5-0.5h9.1
			c0.3,0,0.5,0.2,0.5,0.5C23.1,14.8,22.8,15,22.6,15z M22.6,11H9.4c-0.3,0-0.5-0.2-0.5-0.5c0-0.3,0.2-0.5,0.5-0.5h13.1
			c0.3,0,0.5,0.2,0.5,0.5C23.1,10.8,22.8,11,22.6,11z M15,22h7.6c0.3,0,0.5,0.2,0.5,0.5c0,0.3-0.2,0.5-0.5,0.5H15
			c-0.3,0-0.5-0.2-0.5-0.5C14.5,22.2,14.7,22,15,22z"/>
	</g>
</g>
<g id="Par-Align-Right" display="none">
	<g id="left-active_4_">
		<path id="XMLID_320_" display="inline" fill-rule="evenodd" clip-rule="evenodd" fill="#005FA0" d="M26,28H6c-1.1,0-2-0.9-2-2V6
			c0-1.1,0.9-2,2-2h20c1.1,0,2,0.9,2,2v20C28,27.1,27.1,28,26,28z"/>
		<path id="XMLID_321_" display="inline" fill-rule="evenodd" clip-rule="evenodd" fill="#FFFFFF" d="M8.9,18.5
			c0-0.3,0.2-0.5,0.5-0.5h13.1c0.3,0,0.5,0.2,0.5,0.5c0,0.3-0.2,0.5-0.5,0.5H9.4C9.2,19,8.9,18.8,8.9,18.5z M8.9,14.5
			c0-0.3,0.2-0.5,0.5-0.5h9.1c0.3,0,0.5,0.2,0.5,0.5c0,0.3-0.2,0.5-0.5,0.5H9.4C9.2,15,8.9,14.8,8.9,14.5z M8.9,10.5
			c0-0.3,0.2-0.5,0.5-0.5h13.1c0.3,0,0.5,0.2,0.5,0.5c0,0.3-0.2,0.5-0.5,0.5H9.4C9.2,11,8.9,10.8,8.9,10.5z M17.5,22.5
			c0,0.3-0.2,0.5-0.5,0.5H9.4c-0.3,0-0.5-0.2-0.5-0.5c0-0.3,0.2-0.5,0.5-0.5H17C17.3,22,17.5,22.2,17.5,22.5z"/>
	</g>
	<g id="left-hover_3_">
		<path id="XMLID_319_" display="inline" fill-rule="evenodd" clip-rule="evenodd" fill="#2080C3" d="M6,28h20c1.1,0,2-0.9,2-2V6
			c0-1.1-0.9-2-2-2H6C4.9,4,4,4.9,4,6v20C4,27.1,4.9,28,6,28z"/>
		<path id="XMLID_307_" display="inline" fill-rule="evenodd" clip-rule="evenodd" fill="#FFFFFF" d="M8.9,18.5
			c0-0.3,0.2-0.5,0.5-0.5h13.1c0.3,0,0.5,0.2,0.5,0.5c0,0.3-0.2,0.5-0.5,0.5H9.4C9.2,19,8.9,18.8,8.9,18.5z M8.9,14.5
			c0-0.3,0.2-0.5,0.5-0.5h9.1c0.3,0,0.5,0.2,0.5,0.5c0,0.3-0.2,0.5-0.5,0.5H9.4C9.2,15,8.9,14.8,8.9,14.5z M8.9,10.5
			c0-0.3,0.2-0.5,0.5-0.5h13.1c0.3,0,0.5,0.2,0.5,0.5c0,0.3-0.2,0.5-0.5,0.5H9.4C9.2,11,8.9,10.8,8.9,10.5z M17.5,22.5
			c0,0.3-0.2,0.5-0.5,0.5H9.4c-0.3,0-0.5-0.2-0.5-0.5c0-0.3,0.2-0.5,0.5-0.5H17C17.3,22,17.5,22.2,17.5,22.5z"/>
	</g>
	<g id="left-default_3_" display="inline">
		<path id="XMLID_306_" fill-rule="evenodd" clip-rule="evenodd" fill="none" d="M6,28h20c1.1,0,2-0.9,2-2V6c0-1.1-0.9-2-2-2H6
			C4.9,4,4,4.9,4,6v20C4,27.1,4.9,28,6,28z"/>
		<path id="XMLID_286_" fill-rule="evenodd" clip-rule="evenodd" d="M8.9,18.5c0-0.3,0.2-0.5,0.5-0.5h13.1c0.3,0,0.5,0.2,0.5,0.5
			c0,0.3-0.2,0.5-0.5,0.5H9.4C9.2,19,8.9,18.8,8.9,18.5z M8.9,14.5c0-0.3,0.2-0.5,0.5-0.5h9.1c0.3,0,0.5,0.2,0.5,0.5
			c0,0.3-0.2,0.5-0.5,0.5H9.4C9.2,15,8.9,14.8,8.9,14.5z M8.9,10.5c0-0.3,0.2-0.5,0.5-0.5h13.1c0.3,0,0.5,0.2,0.5,0.5
			c0,0.3-0.2,0.5-0.5,0.5H9.4C9.2,11,8.9,10.8,8.9,10.5z M17.5,22.5c0,0.3-0.2,0.5-0.5,0.5H9.4c-0.3,0-0.5-0.2-0.5-0.5
			c0-0.3,0.2-0.5,0.5-0.5H17C17.3,22,17.5,22.2,17.5,22.5z"/>
	</g>
</g>
<g id="Visibility-Yes" display="none">
	<g id="Working_1_">
		<path id="XMLID_333_" display="inline" fill="#2080C3" d="M22,16c0,3.3-2.7,6-6,6s-6-2.7-6-6s2.7-6,6-6S22,12.7,22,16z M16,7.5
			C7.7,7.5,1,16,1,16s6.7,8.5,15,8.5S31,16,31,16S24.3,7.5,16,7.5z"/>
		<circle id="XMLID_330_" display="inline" fill="#2080C3" cx="16" cy="16" r="3.5"/>
	</g>
	<g id="Working_2_" display="inline">
		<path id="XMLID_368_" fill="#2080C3" d="M22,16c0,3.3-2.7,6-6,6s-6-2.7-6-6s2.7-6,6-6S22,12.7,22,16z M16,7.5C7.7,7.5,1,16,1,16
			s6.7,8.5,15,8.5S31,16,31,16S24.3,7.5,16,7.5z"/>
		<circle id="XMLID_367_" fill="#2080C3" cx="16" cy="16" r="3.5"/>
	</g>
	<g id="Active">
		<path id="XMLID_336_" display="inline" fill="#005FA0" d="M22,16c0,3.3-2.7,6-6,6s-6-2.7-6-6s2.7-6,6-6S22,12.7,22,16z M16,7.5
			C7.7,7.5,1,16,1,16s6.7,8.5,15,8.5S31,16,31,16S24.3,7.5,16,7.5z"/>
		<circle id="XMLID_335_" display="inline" fill="#005FA0" cx="16" cy="16" r="3.5"/>
	</g>
	<g id="Disabled">
		<path id="XMLID_346_" display="inline" fill="#C0C6CC" d="M22,16c0,3.3-2.7,6-6,6s-6-2.7-6-6s2.7-6,6-6S22,12.7,22,16z M16,7.5
			C7.7,7.5,1,16,1,16s6.7,8.5,15,8.5S31,16,31,16S24.3,7.5,16,7.5z"/>
		<circle id="XMLID_345_" display="inline" fill="#C0C6CC" cx="16" cy="16" r="3.5"/>
	</g>
	<g id="white">
		<path id="XMLID_350_" display="inline" fill="#FFFFFF" d="M22,16c0,3.3-2.7,6-6,6s-6-2.7-6-6s2.7-6,6-6S22,12.7,22,16z M16,7.5
			C7.7,7.5,1,16,1,16s6.7,8.5,15,8.5S31,16,31,16S24.3,7.5,16,7.5z"/>
		<circle id="XMLID_349_" display="inline" fill="#FFFFFF" cx="16" cy="16" r="3.5"/>
	</g>
</g>
<g id="Visibility-Yes_copy">
	<g id="Working" display="none">
		<path id="XMLID_342_" display="inline" fill="#2080C3" d="M22,16c0,3.3-2.7,6-6,6s-6-2.7-6-6s2.7-6,6-6S22,12.7,22,16z M16,7.5
			C7.7,7.5,1,16,1,16s6.7,8.5,15,8.5S31,16,31,16S24.3,7.5,16,7.5z"/>
		<circle id="XMLID_341_" display="inline" fill="#FFFFFF" cx="16" cy="16" r="3.5"/>
		
			<rect id="XMLID_275_" x="15.8" y="4.5" transform="matrix(0.8387 0.5446 -0.5446 0.8387 11.7274 -6.5019)" display="inline" fill="#2080C3" width="2" height="24"/>
		
			<rect id="XMLID_334_" x="14.2" y="3.5" transform="matrix(0.8387 0.5446 -0.5446 0.8387 10.8636 -5.764)" display="inline" fill="#FFFFFF" width="2" height="24"/>
	</g>
	<g id="Hover_2_">
		<path id="XMLID_340_" fill="#2080C3" d="M10,16c0-3.3,2.7-6,6-6c0.5,0,1,0.1,1.4,0.2l1.5-2.3C18,7.6,17,7.5,16,7.5
			C7.7,7.5,1,16,1,16s3.4,4.2,8.2,6.7l2-3.1C10.5,18.6,10,17.4,10,16z"/>
		<path id="XMLID_365_" fill="#2080C3" d="M22.8,9.3L24.2,7l-1.7-1.1l-1.6,2.5L19.3,11l-1.4,2.1l-3.8,5.9L12.7,21l-1.6,2.5l-1.6,2.5
			l1.7,1.1l1.9-3c0.9,0.2,1.9,0.3,2.9,0.3c8.3,0,15-8.5,15-8.5S27.6,11.8,22.8,9.3z M16,22c-0.5,0-1-0.1-1.4-0.2l1.5-2.3l3.1-4.8
			l1.5-2.3c0.8,1,1.2,2.3,1.2,3.6C22,19.3,19.3,22,16,22z"/>
	</g>
	<g id="Active_1_" display="none">
		<path id="XMLID_355_" display="inline" fill="#005FA0" d="M10,16c0-3.3,2.7-6,6-6c0.5,0,1,0.1,1.4,0.2l1.5-2.3
			C18,7.6,17,7.5,16,7.5C7.7,7.5,1,16,1,16s3.4,4.2,8.2,6.7l2-3.1C10.5,18.6,10,17.4,10,16z"/>
		<path id="XMLID_339_" display="inline" fill="#005FA0" d="M22.8,9.3L24.2,7l-1.7-1.1l-1.6,2.5L19.3,11l-1.4,2.1l-3.8,5.9L12.7,21
			l-1.6,2.5l-1.6,2.5l1.7,1.1l1.9-3c0.9,0.2,1.9,0.3,2.9,0.3c8.3,0,15-8.5,15-8.5S27.6,11.8,22.8,9.3z M16,22c-0.5,0-1-0.1-1.4-0.2
			l1.5-2.3l3.1-4.8l1.5-2.3c0.8,1,1.2,2.3,1.2,3.6C22,19.3,19.3,22,16,22z"/>
	</g>
	<g id="Disabled_1_" display="none">
		<path id="XMLID_359_" display="inline" fill="#C0C6CC" d="M10,16c0-3.3,2.7-6,6-6c0.5,0,1,0.1,1.4,0.2l1.5-2.3
			C18,7.6,17,7.5,16,7.5C7.7,7.5,1,16,1,16s3.4,4.2,8.2,6.7l2-3.1C10.5,18.6,10,17.4,10,16z"/>
		<path id="XMLID_356_" display="inline" fill="#C0C6CC" d="M22.8,9.3L24.2,7l-1.7-1.1l-1.6,2.5L19.3,11l-1.4,2.1l-3.8,5.9L12.7,21
			l-1.6,2.5l-1.6,2.5l1.7,1.1l1.9-3c0.9,0.2,1.9,0.3,2.9,0.3c8.3,0,15-8.5,15-8.5S27.6,11.8,22.8,9.3z M16,22c-0.5,0-1-0.1-1.4-0.2
			l1.5-2.3l3.1-4.8l1.5-2.3c0.8,1,1.2,2.3,1.2,3.6C22,19.3,19.3,22,16,22z"/>
	</g>
	<g id="White" display="none">
		<path id="XMLID_366_" display="inline" fill="#FFFFFF" d="M10,16c0-3.3,2.7-6,6-6c0.5,0,1,0.1,1.4,0.2l1.5-2.3
			C18,7.6,17,7.5,16,7.5C7.7,7.5,1,16,1,16s3.4,4.2,8.2,6.7l2-3.1C10.5,18.6,10,17.4,10,16z"/>
		<path id="XMLID_360_" display="inline" fill="#FFFFFF" d="M22.8,9.3L24.2,7l-1.7-1.1l-1.6,2.5L19.3,11l-1.4,2.1l-3.8,5.9L12.7,21
			l-1.6,2.5l-1.6,2.5l1.7,1.1l1.9-3c0.9,0.2,1.9,0.3,2.9,0.3c8.3,0,15-8.5,15-8.5S27.6,11.8,22.8,9.3z M16,22c-0.5,0-1-0.1-1.4-0.2
			l1.5-2.3l3.1-4.8l1.5-2.3c0.8,1,1.2,2.3,1.2,3.6C22,19.3,19.3,22,16,22z"/>
	</g>
</g>
</svg>
