<?xml version="1.0" encoding="utf-8"?>
<!-- Generator: Adobe Illustrator 19.1.0, SVG Export Plug-In . SVG Version: 6.00 Build 0)  -->
<!DOCTYPE svg PUBLIC "-//W3C//DTD SVG 1.0//EN" "http://www.w3.org/TR/2001/REC-SVG-20010904/DTD/svg10.dtd">
<svg version="1.0" id="Layer_1" xmlns="http://www.w3.org/2000/svg" xmlns:xlink="http://www.w3.org/1999/xlink" x="0px" y="0px"
	 width="16px" height="16px" viewBox="0 0 16 16" style="enable-background:new 0 0 16 16;" xml:space="preserve">
<style type="text/css">
	.st0{fill:#2080C3;}
</style>
<g id="search">
	<path id="search-default" class="st0" d="M16,14.8l-5-5c0.8-1.1,1.3-2.4,1.3-3.7c0-1.7-0.6-3.2-1.8-4.4c-2.3-2.3-6.4-2.3-8.7,0
		c-2.4,2.4-2.4,6.3,0,8.8c1.2,1.2,2.7,1.8,4.4,1.8c1.4,0,2.7-0.5,3.7-1.3l5,5L16,14.8z M3,9.4c-0.9-0.9-1.3-2-1.3-3.2S2.1,3.8,3,2.9
		s2-1.3,3.2-1.3S8.5,2,9.4,2.9s1.3,2,1.3,3.2s-0.5,2.4-1.3,3.2C7.7,11.1,4.7,11.1,3,9.4z"/>
</g>
</svg>
