<?xml version="1.0" encoding="utf-8"?>
<!-- Generator: Adobe Illustrator 19.1.0, SVG Export Plug-In . SVG Version: 6.00 Build 0)  -->
<!DOCTYPE svg PUBLIC "-//W3C//DTD SVG 1.0//EN" "http://www.w3.org/TR/2001/REC-SVG-20010904/DTD/svg10.dtd">
<svg version="1.0" id="Layer_1" xmlns="http://www.w3.org/2000/svg" xmlns:xlink="http://www.w3.org/1999/xlink" x="0px" y="0px"
	 width="24px" height="24px" viewBox="-3 5 24 24" style="enable-background:new -3 5 24 24;" xml:space="preserve">
<style type="text/css">
	.st0{fill:#FFFFFF;}
	.st1{fill:#E42226;}
</style>
<path class="st0" d="M21,17c0,6.6-5.4,12-12,12S-3,23.6-3,17S2.4,5,9,5S21,10.4,21,17z"/>
<path class="st1" d="M9,21.5c-0.8,0-1.5,0.7-1.5,1.5s0.7,1.5,1.5,1.5s1.5-0.7,1.5-1.5S9.8,21.5,9,21.5z"/>
<path class="st1" d="M10,19l0.6-8.4c0-0.5-0.3-0.9-0.8-0.9H8.2c-0.5,0-0.9,0.4-0.8,0.9L8,19c0,0.4,0.3,0.7,0.7,0.7h0.7
	C9.7,19.7,10,19.4,10,19z"/>
</svg>
