<?xml version="1.0" encoding="utf-8"?>
<!-- Generator: Adobe Illustrator 19.1.0, SVG Export Plug-In . SVG Version: 6.00 Build 0)  -->
<!DOCTYPE svg PUBLIC "-//W3C//DTD SVG 1.1//EN" "http://www.w3.org/Graphics/SVG/1.1/DTD/svg11.dtd">
<svg version="1.1" id="move-file" xmlns="http://www.w3.org/2000/svg" xmlns:xlink="http://www.w3.org/1999/xlink" x="0px" y="0px"
	 width="32px" height="32px" viewBox="0 0 32 32" style="enable-background:new 0 0 32 32;" xml:space="preserve">
<style type="text/css">
	.st0{fill:#005FA0;}
</style>
<g id="move-file-active-blue-base-dark">
	<polygon id="XMLID_248_" class="st0" points="19.6,16.8 25.8,16.8 25.8,19.3 32,15.7 25.8,12.1 25.8,14.7 19.6,14.7 	"/>
	<g id="XMLID_224_">
		<path id="XMLID_242_" class="st0" d="M15,6.1H1.2C0.5,6.1,0,6.7,0,7.3v17.3c0,0.7,0.5,1.2,1.2,1.2H15c0.7,0,1.2-0.5,1.2-1.2v-8.3
			v-1.3V7.3C16.2,6.7,15.6,6.1,15,6.1z M3.2,10.1h9.7v1.2H3.2V10.1z M3.2,13.5h9.7v1.2H3.2V13.5z M9.9,21.5H7.1H5.8H3.2v-1.2h2.6
			h1.3h2.8V21.5z M12.9,18.1H7.1H5.8H3.2v-1.2h2.6h1.3h5.8V18.1z"/>
	</g>
</g>
</svg>
