<?xml version="1.0" encoding="utf-8"?>
<!-- Generator: Adobe Illustrator 19.1.0, SVG Export Plug-In . SVG Version: 6.00 Build 0)  -->
<!DOCTYPE svg PUBLIC "-//W3C//DTD SVG 1.1//EN" "http://www.w3.org/Graphics/SVG/1.1/DTD/svg11.dtd">
<svg version="1.1" id="Layer_1_copy" xmlns="http://www.w3.org/2000/svg" xmlns:xlink="http://www.w3.org/1999/xlink" x="0px"
	 y="0px" width="32px" height="32px" viewBox="0 0 32 32" style="enable-background:new 0 0 32 32;" xml:space="preserve">
<style type="text/css">
	.st0{fill:#333333;}
</style>
<path id="XMLID_1397_" class="st0" d="M26,14.6V9.2C26,5.1,23.2,2,19,2h-6C8.9,2,6,5.1,6,9.2v5.4c-2,0.8-4,3-4,5.6v6
	C2,29.5,4.7,32,8,32h16c3.3,0,6-2.5,6-5.8v-6C30,17.6,28,15.4,26,14.6z M23,14H9V9.2C9,6.8,10.6,5,13,5h6c2.5,0,4,1.8,4,4.2V14z
	 M19.4,23c0,1.9-1.5,3.4-3.4,3.4s-3.4-1.5-3.4-3.4s1.5-3.4,3.4-3.4S19.4,21.1,19.4,23z"/>
</svg>
