<?xml version="1.0" encoding="utf-8"?>
<!-- Generator: Adobe Illustrator 19.1.0, SVG Export Plug-In . SVG Version: 6.00 Build 0)  -->
<!DOCTYPE svg PUBLIC "-//W3C//DTD SVG 1.0//EN" "http://www.w3.org/TR/2001/REC-SVG-20010904/DTD/svg10.dtd">
<svg version="1.0" id="Layer_1" xmlns="http://www.w3.org/2000/svg" xmlns:xlink="http://www.w3.org/1999/xlink" x="0px" y="0px"
	 width="16px" height="16px" viewBox="0 0 16 16" style="enable-background:new 0 0 16 16;" xml:space="preserve">
<style type="text/css">
	.st0{fill:#C0C6CC;}
</style>
<path class="st0" d="M16,3L16,3L16,3l-1,0h-0.9H1.9H1H0.1H0v1v0.1v0V11v0.6V13v1h1h14h1v-1v-1.4V11V4.1v0V4L16,3L16,3L16,3z M14.3,4
	L8,7.9L1.7,4H14.3z M15,11.5V13H1v-1.5v-1.2V4.7l4.5,2.8l0.9,0.6L8,9.1l1.5-1l0.9-0.6L15,4.7v5.6V11.5z"/>
</svg>
