<?xml version="1.0" encoding="utf-8"?>
<!-- Generator: Adobe Illustrator 19.1.0, SVG Export Plug-In . SVG Version: 6.00 Build 0)  -->
<!DOCTYPE svg PUBLIC "-//W3C//DTD SVG 1.0//EN" "http://www.w3.org/TR/2001/REC-SVG-20010904/DTD/svg10.dtd">
<svg version="1.0" id="Layer_1" xmlns="http://www.w3.org/2000/svg" xmlns:xlink="http://www.w3.org/1999/xlink" x="0px" y="0px"
	 width="16px" height="16px" viewBox="0 0 16 16" style="enable-background:new 0 0 16 16;" xml:space="preserve">
<style type="text/css">
	.st0{fill:#C0C6CC;}
</style>
<path class="st0" d="M15.1,11.1c-1.1,0-2.1-0.2-3.2-0.5c-0.3-0.1-0.6,0-0.9,0.2l-2,2c-2.5-1.2-4.5-3.4-5.9-5.9l2-2
	C5.4,4.6,5.5,4.3,5.3,4C5.1,3,4.9,2,4.9,0.9C4.9,0.4,4.5,0,4,0H0.9C0.4,0,0,0.4,0,0.9C0,9.2,6.8,16,15.1,16c0.5,0,0.9-0.4,0.9-0.9
	V12C16,11.5,15.6,11.1,15.1,11.1z"/>
</svg>
