<?xml version="1.0" encoding="utf-8"?>
<!-- Generator: Adobe Illustrator 19.1.0, SVG Export Plug-In . SVG Version: 6.00 Build 0)  -->
<!DOCTYPE svg PUBLIC "-//W3C//DTD SVG 1.0//EN" "http://www.w3.org/TR/2001/REC-SVG-20010904/DTD/svg10.dtd">
<svg version="1.0" id="Layer_1" xmlns="http://www.w3.org/2000/svg" xmlns:xlink="http://www.w3.org/1999/xlink" x="0px" y="0px"
	 width="24px" height="24px" viewBox="0 0 24 24" style="enable-background:new 0 0 24 24;" xml:space="preserve">
<style type="text/css">
	.st0{fill:#FFFFFF;}
	.st1{fill:#E42226;}
</style>
<path class="st0" d="M24,12c0,6.6-5.4,12-12,12S0,18.6,0,12S5.4,0,12,0S24,5.4,24,12z"/>
<path class="st1" d="M12,16.5c-0.8,0-1.5,0.7-1.5,1.5s0.7,1.5,1.5,1.5s1.5-0.7,1.5-1.5S12.8,16.5,12,16.5z"/>
<path class="st1" d="M13,14l0.6-8.4c0-0.5-0.3-0.9-0.8-0.9h-1.6c-0.5,0-0.9,0.4-0.8,0.9L11,14c0,0.4,0.3,0.7,0.7,0.7h0.7
	C12.7,14.7,13,14.4,13,14z"/>
<path id="error-bug-fill-12" class="st1" d="M54.4,3.9c0,3.3-2.7,6-6,6c-3.3,0-6-2.7-6-6s2.7-6,6-6C51.8-2.1,54.4,0.6,54.4,3.9z
	 M48.4,6.2c-0.4,0-0.7,0.3-0.7,0.7s0.3,0.7,0.7,0.7c0.4,0,0.7-0.3,0.7-0.7S48.8,6.2,48.4,6.2z M48.9,4.9l0.3-4.2
	c0-0.2-0.2-0.4-0.4-0.4h-0.8c-0.2,0-0.4,0.2-0.4,0.4l0.3,4.2c0,0.2,0.1,0.3,0.3,0.3h0.3C48.8,5.2,48.9,5.1,48.9,4.9z"/>
</svg>
