<?xml version="1.0" encoding="utf-8"?>
<!-- Generator: Adobe Illustrator 19.1.0, SVG Export Plug-In . SVG Version: 6.00 Build 0)  -->
<!DOCTYPE svg PUBLIC "-//W3C//DTD SVG 1.0//EN" "http://www.w3.org/TR/2001/REC-SVG-20010904/DTD/svg10.dtd">
<svg version="1.0" id="Layer_1" xmlns="http://www.w3.org/2000/svg" xmlns:xlink="http://www.w3.org/1999/xlink" x="0px" y="0px"
	 width="32px" height="32px" viewBox="0 0 32 32" style="enable-background:new 0 0 32 32;" xml:space="preserve">
<style type="text/css">
	.st0{fill:#2080C3;}
</style>
<path id="XMLID_416_" class="st0" d="M24.7,22c-1.5,0-3.4-0.4-5.7-1.4c-3.9-1.8-7.5-2.3-10.5-2.3c-2.3,0-4.2,0.3-5.6,0.7v12
	c0,0.6-0.4,1-1,1s-1-0.4-1-1V6V3V2H1c0.6-0.3,4-1.9,8.8-1.9c2.7,0,5.8,0.5,9.1,2c2.2,1,4.1,1.4,5.7,1.4C29.3,3.5,31,0,31,0v18.5
	C31,18.5,29.3,22,24.7,22z M29,4.5c-1.1,0.6-2.6,1-4.3,1c-2,0-4.2-0.5-6.5-1.6C15.5,2.6,12.8,2,9.9,2C6.8,2,4.3,2.8,3,3.3v13.5
	c1.4-0.3,3.3-0.6,5.5-0.6c3.9,0,7.6,0.8,11.3,2.5c1.8,0.8,3.4,1.2,4.9,1.2c2.5,0,3.8-1.4,4.3-2V4.5z"/>
</svg>
