<?xml version="1.0" encoding="UTF-8" standalone="no"?>
<svg id="layer-1" width="52px" height="52px"  viewBox="0 0 52 52" version="1.1" xmlns="http://www.w3.org/2000/svg" xmlns:xlink="http://www.w3.org/1999/xlink">
    <!-- Generator: Sketch 3.8.3 (29802) - http://www.bohemiancoding.com/sketch -->
    
    <defs>
        <path d="M26,2 C38.15,2 48,11.85 48,24 C48,36.15 38.15,46 26,46 C13.85,46 4,36.15 4,24 C4,11.85 13.85,2 26,2" id="path-1"></path>
        <filter x="-50%" y="-50%" width="200%" height="200%" filterUnits="objectBoundingBox" id="filter-2">
            <feOffset dx="0" dy="2" in="SourceAlpha" result="shadowOffsetOuter1"></feOffset>
            <feGaussianBlur stdDeviation="2" in="shadowOffsetOuter1" result="shadowBlurOuter1"></feGaussianBlur>
            <feColorMatrix values="0 0 0 0 0   0 0 0 0 0   0 0 0 0 0  0 0 0 0.5 0" type="matrix" in="shadowBlurOuter1"></feColorMatrix>
        </filter>
    <style>#Layer-1{background:red;}</style>
    </defs>
    <g id="Symbols" stroke="none" stroke-width="1" fill="none" fill-rule="evenodd">
        <g id="spinner-44">
            
            <g id="Fill-1">
                <use fill="black" fill-opacity="1" filter="url(#filter-2)" xlink:href="#path-1"></use>
                <use fill="#FFFFFF" fill-rule="evenodd" xlink:href="#path-1"></use>
            </g>
            <g id="rotateSquare">
                <animateTransform
        attributeType="XML"
        attributeName="transform"
        type="rotate"
        from="0,26,24" to="360,26,24"
        begin="0s" dur="0.8s"
        repeatCount="indefinite"/>
            <path d="M26,10 C18.268,10 12,16.268 12,24 C12,31.732 18.268,38 26,38 C33.732,38 40,31.732 40,24 C40,16.268 33.732,10 26,10 M26,12 C32.627,12 38,17.373 38,24 C38,30.627 32.627,36 26,36 C19.373,36 14,30.627 14,24 C14,17.373 19.373,12 26,12" id="Fill-3" fill="#E4E4E4"></path>
            <path d="M26,10 L26,12 C32.627,12 38,17.373 38,24 L40,24 C40,16.268 33.732,10 26,10" id="Fill-5" fill="#1394E5"></path>
        </g>
            </g>
    </g>
</svg>